<svg width="140" height="32" viewBox="0 0 140 32" fill="none" xmlns="http://www.w3.org/2000/svg">
<path d="M22.7781 17.599H9.74943C8.68586 17.599 7.79956 16.6932 7.79956 15.6064C7.79956 14.5195 8.68586 13.6138 9.74943 13.6138H22.7781C23.8417 13.6138 24.728 14.5195 24.728 15.6064C24.728 16.7838 23.8417 17.599 22.7781 17.599Z" fill="#056A57"/>
<path d="M20.3852 32C21.4131 32 22.2464 31.1484 22.2464 30.098C22.2464 29.0475 21.4131 28.1959 20.3852 28.1959C19.3572 28.1959 18.5239 29.0475 18.5239 30.098C18.5239 31.1484 19.3572 32 20.3852 32Z" fill="#056A57"/>
<path d="M9.66081 32C10.6887 32 11.522 31.1484 11.522 30.098C11.522 29.0475 10.6887 28.1959 9.66081 28.1959C8.63287 28.1959 7.79956 29.0475 7.79956 30.098C7.79956 31.1484 8.63287 32 9.66081 32Z" fill="#056A57"/>
<path d="M25.5256 0.0278417C24.462 -0.153304 23.4871 0.571275 23.3098 1.56757V1.65815L22.6894 5.00934H8.86305C3.98837 5.00934 0 9.71912 0 15.6063C0 21.4936 3.98837 26.2034 8.86305 26.2034H21.3599C21.9804 26.2034 22.6008 25.8411 22.9553 25.2976C23.753 24.0296 22.8667 22.3087 21.3599 22.3087H8.86305C5.67235 22.3087 3.10207 19.3198 3.10207 15.6063C3.10207 11.8929 5.67235 8.90396 8.86305 8.90396H24.2848C24.9052 8.90396 25.5256 8.54167 25.8801 7.99824C26.0574 7.72652 26.146 7.36423 26.146 7.09251L26.2346 6.54907L26.9437 2.38273V2.29216C27.2096 1.29586 26.5005 0.29956 25.5256 0.0278417Z" fill="#056A57"/>
<path d="M40.893 24V8.644H50.727V10.844H43.379V15.112H50.045V17.312H43.379V21.8H50.727V24H40.893ZM62.14 24C61.5093 24 61.0253 23.824 60.688 23.472C60.3507 23.1053 60.1453 22.6433 60.072 22.086H59.962C59.742 22.8047 59.3387 23.3473 58.752 23.714C58.1653 24.0807 57.454 24.264 56.618 24.264C55.43 24.264 54.5133 23.956 53.868 23.34C53.2373 22.724 52.922 21.8953 52.922 20.854C52.922 19.71 53.3327 18.852 54.154 18.28C54.99 17.708 56.2073 17.422 57.806 17.422H59.874V16.454C59.874 15.75 59.6833 15.2073 59.302 14.826C58.9207 14.4447 58.3267 14.254 57.52 14.254C56.8453 14.254 56.2953 14.4007 55.87 14.694C55.4447 14.9873 55.0853 15.3613 54.792 15.816L53.362 14.518C53.7433 13.8727 54.2787 13.3447 54.968 12.934C55.6573 12.5087 56.5593 12.296 57.674 12.296C59.1553 12.296 60.292 12.6407 61.084 13.33C61.876 14.0193 62.272 15.0093 62.272 16.3V22.042H63.482V24H62.14ZM57.3 22.438C58.048 22.438 58.664 22.2767 59.148 21.954C59.632 21.6167 59.874 21.1693 59.874 20.612V18.962H57.85C56.1927 18.962 55.364 19.4753 55.364 20.502V20.898C55.364 21.4113 55.5327 21.8 55.87 22.064C56.222 22.3133 56.6987 22.438 57.3 22.438ZM69.4622 24.264C68.3769 24.264 67.4675 24.0733 66.7342 23.692C66.0009 23.3107 65.3629 22.7827 64.8202 22.108L66.3602 20.7C66.7855 21.2133 67.2549 21.6167 67.7682 21.91C68.2962 22.1887 68.9049 22.328 69.5942 22.328C70.2982 22.328 70.8189 22.196 71.1562 21.932C71.5082 21.6533 71.6842 21.272 71.6842 20.788C71.6842 20.4213 71.5595 20.1133 71.3102 19.864C71.0755 19.6 70.6575 19.4313 70.0562 19.358L69.0002 19.226C67.8269 19.0793 66.9029 18.742 66.2282 18.214C65.5682 17.6713 65.2382 16.872 65.2382 15.816C65.2382 15.2587 65.3409 14.7673 65.5462 14.342C65.7515 13.902 66.0375 13.5353 66.4042 13.242C66.7855 12.934 67.2329 12.6993 67.7462 12.538C68.2742 12.3767 68.8535 12.296 69.4842 12.296C70.5109 12.296 71.3469 12.4573 71.9922 12.78C72.6522 13.1027 73.2389 13.55 73.7522 14.122L72.2782 15.53C71.9849 15.178 71.5962 14.8773 71.1122 14.628C70.6429 14.364 70.1002 14.232 69.4842 14.232C68.8242 14.232 68.3329 14.364 68.0102 14.628C67.7022 14.892 67.5482 15.2367 67.5482 15.662C67.5482 16.102 67.6875 16.432 67.9662 16.652C68.2449 16.872 68.6922 17.0333 69.3082 17.136L70.3642 17.268C71.6255 17.4587 72.5422 17.8327 73.1142 18.39C73.7009 18.9327 73.9942 19.666 73.9942 20.59C73.9942 21.1473 73.8842 21.6533 73.6642 22.108C73.4589 22.548 73.1582 22.9293 72.7622 23.252C72.3662 23.5747 71.8895 23.824 71.3322 24C70.7749 24.176 70.1515 24.264 69.4622 24.264ZM83.4205 12.56H85.7305L80.9125 26.266C80.7805 26.6473 80.6265 26.97 80.4505 27.234C80.2892 27.5127 80.0912 27.7327 79.8565 27.894C79.6365 28.07 79.3652 28.1947 79.0425 28.268C78.7199 28.356 78.3385 28.4 77.8985 28.4H76.5125V26.442H78.4485L79.1085 24.506L74.9505 12.56H77.3485L79.6365 19.292L80.2965 21.778H80.4065L81.1325 19.292L83.4205 12.56ZM92.4773 24.264C91.1866 24.264 90.0866 24.0293 89.1773 23.56C88.2826 23.0907 87.5126 22.46 86.8673 21.668L88.5833 20.062C89.126 20.722 89.72 21.2207 90.3653 21.558C91.0253 21.8953 91.7733 22.064 92.6093 22.064C93.592 22.064 94.3326 21.844 94.8313 21.404C95.33 20.964 95.5793 20.37 95.5793 19.622C95.5793 19.0207 95.4033 18.544 95.0513 18.192C94.6993 17.84 94.076 17.576 93.1813 17.4L91.8173 17.158C90.3213 16.8793 89.1993 16.388 88.4513 15.684C87.7033 14.98 87.3293 14.012 87.3293 12.78C87.3293 12.1053 87.454 11.4967 87.7033 10.954C87.9673 10.3967 88.3266 9.93467 88.7813 9.568C89.2506 9.18667 89.8153 8.89333 90.4753 8.688C91.1353 8.48267 91.876 8.38 92.6973 8.38C93.856 8.38 94.8606 8.58533 95.7113 8.996C96.562 9.392 97.288 9.97133 97.8893 10.734L96.1513 12.274C95.7553 11.7607 95.2713 11.35 94.6993 11.042C94.1273 10.734 93.416 10.58 92.5653 10.58C91.6853 10.58 91.0033 10.756 90.5193 11.108C90.0353 11.46 89.7933 11.9733 89.7933 12.648C89.7933 13.2933 89.9913 13.7773 90.3873 14.1C90.7833 14.408 91.3993 14.6427 92.2353 14.804L93.5993 15.09C95.1393 15.3833 96.2613 15.882 96.9653 16.586C97.684 17.29 98.0433 18.258 98.0433 19.49C98.0433 20.2087 97.9186 20.8613 97.6693 21.448C97.42 22.0347 97.0533 22.5407 96.5693 22.966C96.1 23.3767 95.5206 23.6993 94.8313 23.934C94.142 24.154 93.3573 24.264 92.4773 24.264ZM103.977 24C103.141 24 102.51 23.7873 102.085 23.362C101.659 22.922 101.447 22.306 101.447 21.514V14.518H99.6648V12.56H100.633C101.029 12.56 101.3 12.472 101.447 12.296C101.608 12.12 101.689 11.834 101.689 11.438V9.436H103.845V12.56H106.243V14.518H103.845V22.042H106.067V24H103.977ZM113.246 24.264C112.454 24.264 111.728 24.1247 111.068 23.846C110.423 23.5673 109.873 23.1713 109.418 22.658C108.963 22.13 108.611 21.4993 108.362 20.766C108.113 20.018 107.988 19.1893 107.988 18.28C107.988 17.3707 108.113 16.5493 108.362 15.816C108.611 15.068 108.963 14.4373 109.418 13.924C109.873 13.396 110.423 12.9927 111.068 12.714C111.728 12.4353 112.454 12.296 113.246 12.296C114.038 12.296 114.757 12.4353 115.402 12.714C116.062 12.9927 116.619 13.396 117.074 13.924C117.529 14.4373 117.881 15.068 118.13 15.816C118.379 16.5493 118.504 17.3707 118.504 18.28C118.504 19.1893 118.379 20.018 118.13 20.766C117.881 21.4993 117.529 22.13 117.074 22.658C116.619 23.1713 116.062 23.5673 115.402 23.846C114.757 24.1247 114.038 24.264 113.246 24.264ZM113.246 22.284C114.067 22.284 114.727 22.0347 115.226 21.536C115.725 21.0227 115.974 20.26 115.974 19.248V17.312C115.974 16.3 115.725 15.5447 115.226 15.046C114.727 14.5327 114.067 14.276 113.246 14.276C112.425 14.276 111.765 14.5327 111.266 15.046C110.767 15.5447 110.518 16.3 110.518 17.312V19.248C110.518 20.26 110.767 21.0227 111.266 21.536C111.765 22.0347 112.425 22.284 113.246 22.284ZM121.176 24V12.56H123.574V14.76H123.684C123.845 14.1733 124.183 13.66 124.696 13.22C125.209 12.78 125.921 12.56 126.83 12.56H127.468V14.87H126.522C125.569 14.87 124.835 15.024 124.322 15.332C123.823 15.64 123.574 16.0947 123.574 16.696V24H121.176ZM133.978 24.264C133.157 24.264 132.424 24.1247 131.778 23.846C131.133 23.5673 130.583 23.1713 130.128 22.658C129.674 22.13 129.322 21.4993 129.072 20.766C128.838 20.018 128.72 19.1893 128.72 18.28C128.72 17.3707 128.838 16.5493 129.072 15.816C129.322 15.068 129.674 14.4373 130.128 13.924C130.583 13.396 131.133 12.9927 131.778 12.714C132.424 12.4353 133.157 12.296 133.978 12.296C134.814 12.296 135.548 12.4427 136.178 12.736C136.824 13.0293 137.359 13.44 137.784 13.968C138.21 14.4813 138.525 15.0827 138.73 15.772C138.95 16.4613 139.06 17.202 139.06 17.994V18.896H131.206V19.27C131.206 20.15 131.463 20.876 131.976 21.448C132.504 22.0053 133.252 22.284 134.22 22.284C134.924 22.284 135.518 22.13 136.002 21.822C136.486 21.514 136.897 21.096 137.234 20.568L138.642 21.954C138.217 22.658 137.601 23.2227 136.794 23.648C135.988 24.0587 135.049 24.264 133.978 24.264ZM133.978 14.166C133.568 14.166 133.186 14.2393 132.834 14.386C132.497 14.5327 132.204 14.738 131.954 15.002C131.72 15.266 131.536 15.5813 131.404 15.948C131.272 16.3147 131.206 16.718 131.206 17.158V17.312H136.53V17.092C136.53 16.212 136.303 15.508 135.848 14.98C135.394 14.4373 134.77 14.166 133.978 14.166Z" fill="#001329"/>
</svg>
