<svg width="36" height="35" viewBox="0 0 36 35" fill="none" xmlns="http://www.w3.org/2000/svg">
<path d="M14.9159 19.6448L14.9159 19.6448C15.9395 19.4585 16.9008 19.7276 17.4738 20.3898L17.4738 20.3898C18.2946 21.3393 18.1773 22.8028 17.3365 23.9357L17.9569 24.6534C18.22 24.9577 18.1104 25.4294 17.7872 25.7088C17.4639 25.9882 16.9814 26.0284 16.7183 25.7241L16.1292 25.0425C14.8412 25.8507 13.2471 25.804 12.3761 24.7964C12.113 24.4921 12.2226 24.0204 12.5458 23.741C12.8691 23.4616 13.3516 23.4214 13.6147 23.7257C14.0741 24.2573 15.0152 24.2534 15.7212 23.6431L15.8484 23.5331C16.5547 22.9226 16.6947 21.992 16.2352 21.4605C15.97 21.1537 15.4917 21.0119 14.9389 21.1126C14.6621 21.1631 14.3795 21.2703 14.1235 21.4233L14.9159 19.6448ZM14.9159 19.6448C14.4323 19.7329 13.9428 19.9197 13.4999 20.1839L13.4998 20.184M14.9159 19.6448L13.4998 20.184M13.4998 20.184C13.3117 20.2964 13.1464 20.4197 13.0052 20.525L13.0049 20.5253L13.0047 20.5254M13.4998 20.184L13.0047 20.5254M13.0047 20.5254C12.8373 20.6505 12.7063 20.7476 12.5813 20.8053C12.0048 21.0704 11.3847 20.9681 11.0635 20.5966C10.6369 20.1031 10.7654 19.2365 11.4247 18.6667L11.5459 18.5619C12.2055 17.9917 13.0815 17.9899 13.5081 18.4834C13.7712 18.7877 14.2537 18.7476 14.5769 18.4681C14.9002 18.1887 15.0097 17.7171 14.7467 17.4127C13.9592 16.5018 12.5577 16.4048 11.3639 17.0349L10.9058 16.505C10.6427 16.2007 10.1602 16.2408 9.83694 16.5203C9.51368 16.7997 9.40414 17.2713 9.66721 17.5757L10.0939 18.0693C9.15976 19.1844 8.98963 20.7003 9.82522 21.6669C10.5528 22.5086 11.8443 22.682 13.0257 22.1389L13.0257 22.1389M13.0047 20.5254L13.0257 22.1389M13.0257 22.1389C13.3355 21.9963 13.5826 21.8118 13.7919 21.6555L13.795 21.6532L13.795 21.6532M13.0257 22.1389L13.795 21.6532M13.795 21.6532C13.9154 21.5633 14.0224 21.4839 14.1234 21.4234L13.795 21.6532Z" fill="#056956" stroke="#056956" stroke-width="0.243552"/>
<path d="M18.1138 6.02711L18.1138 6.02711C16.7757 6.061 15.482 6.56127 14.4696 7.43637L3.18268 17.193C1.72946 18.4492 1.56946 20.6536 2.82583 22.107L11.4819 32.1207C12.7383 33.5742 14.9424 33.7345 16.3956 32.4783L27.6825 22.7216C28.6949 21.8465 29.377 20.6388 29.6041 19.3197L29.6041 19.3197C29.6066 19.3052 29.6094 19.2876 29.6111 19.2688C29.6112 19.2685 29.6112 19.2683 29.6112 19.268L30.4598 10.5994L30.4598 10.5994L30.4601 10.5958C30.5399 9.56011 30.2094 8.55636 29.5304 7.77087C28.8513 6.98518 27.9058 6.51317 26.8593 6.44151L26.8593 6.44147L26.8557 6.4413L18.1659 6.0276C18.1657 6.02759 18.1655 6.02758 18.1653 6.02757C18.1464 6.02659 18.1285 6.02674 18.1138 6.02711ZM29.0582 10.4745L28.2131 19.1052C28.0369 20.0944 27.5225 20.9999 26.7625 21.6568L15.4753 31.4137C14.6093 32.1623 13.2953 32.0667 12.5465 31.2005L3.89042 21.1868C3.14159 20.3205 3.23717 19.0064 4.10315 18.2579L15.3901 8.50122C16.1503 7.84404 17.1207 7.46601 18.1247 7.43509L26.776 7.84669C27.4347 7.89179 28.034 8.19153 28.4658 8.69111C28.8979 9.19097 29.1076 9.82739 29.0582 10.4745Z" fill="#056956" stroke="#056956" stroke-width="0.351798"/>
<path d="M22.0123 10.7395C20.9027 11.6987 20.7801 13.3814 21.7395 14.4913C22.6989 15.6012 24.3814 15.7236 25.4913 14.7641C26.6012 13.8047 26.7235 12.1223 25.7641 11.0124C24.8047 9.90245 23.1219 9.78037 22.0123 10.7395ZM24.6203 13.7566C24.0661 14.2356 23.2258 14.1742 22.747 13.6203C22.2683 13.0665 22.3294 12.2259 22.8833 11.7471C23.4371 11.2683 24.2775 11.3292 24.7565 11.8833C25.2356 12.4375 25.1742 13.2778 24.6203 13.7566Z" fill="#056956"/>
</svg>
