<svg width="129" height="40" viewBox="0 0 129 40" fill="none" xmlns="http://www.w3.org/2000/svg">
<g opacity="0.5" clip-path="url(#clip0_1746_2334)">
<path d="M20.3278 20.0698C20.3278 25.3706 16.0598 29.668 10.7949 29.668C5.53004 29.668 1.26245 25.3719 1.26245 20.0698C1.26245 14.7676 5.53037 10.4719 10.7949 10.4719C16.0595 10.4719 20.3278 14.7689 20.3278 20.0698ZM30.7854 20.0698C30.7854 25.0598 28.6512 29.1047 26.019 29.1047C23.3867 29.1047 21.2525 25.0585 21.2525 20.0698C21.2525 15.081 23.3867 11.0348 26.019 11.0348C28.6512 11.0348 30.7854 15.081 30.7854 20.0698ZM35.0627 20.0698C35.0627 24.5406 34.312 28.1647 33.3862 28.1647C32.4605 28.1647 31.7098 24.5393 31.7098 20.0698C31.7098 15.6002 32.4605 11.9748 33.3866 11.9748C34.3127 11.9748 35.0627 15.5992 35.0627 20.0698ZM61.3716 11.3041L61.3981 11.2983V11.0927H55.9769L50.9431 22.9238L45.9094 11.0927H40.0673V11.2983L40.0935 11.3041C41.0831 11.5275 41.5854 11.8605 41.5854 13.0618V27.1247C41.5854 28.3259 41.0811 28.659 40.0916 28.8824L40.0654 28.8882V29.0944H44.029V28.8888L44.0028 28.883C43.0133 28.6597 42.5109 28.3266 42.5109 27.1253V13.8775L48.9773 29.0944H49.3441L55.9989 13.4531V27.4727C55.9141 28.4214 55.4163 28.7144 54.5203 28.9167L54.4937 28.9228V29.1267H61.3981V28.9228L61.3716 28.9167C60.4746 28.7144 59.9648 28.4214 59.88 27.4727L59.8755 13.0618H59.88C59.88 11.8605 60.3824 11.5275 61.3716 11.3041ZM64.5254 20.62C64.6383 18.0933 65.5456 16.2696 67.0683 16.2382C67.538 16.246 67.9319 16.4 68.2381 16.6965C68.8888 17.3281 69.1947 18.6478 69.1474 20.62H64.5254ZM64.4571 21.3322H72.5494V21.2982C72.5264 19.3661 71.9668 17.8631 70.8876 16.8312C69.9547 15.9394 68.5735 15.4487 67.1227 15.4487H67.0903C66.3374 15.4487 65.4139 15.6313 64.7568 15.9621C64.0087 16.3084 63.3491 16.8263 62.8001 17.5061C61.9164 18.6012 61.381 20.0811 61.2509 21.7442C61.2466 21.7941 61.2431 21.8439 61.2395 21.8938C61.236 21.9436 61.2337 21.9883 61.2315 22.0359C61.22 22.2697 61.2161 22.5039 61.2198 22.738C61.3075 26.5048 63.3423 29.5152 66.9563 29.5152C70.1285 29.5152 71.9758 27.1962 72.4365 24.0836L72.2037 24.0017C71.3945 25.6745 69.9411 26.6884 68.287 26.5647C66.0289 26.3957 64.2991 24.1062 64.4561 21.3328M81.699 26.4368C81.4336 27.0664 80.8797 27.4128 80.1375 27.4128C79.3952 27.4128 78.7168 26.9033 78.2348 25.9775C77.7169 24.9838 77.4443 23.5789 77.4443 21.9148C77.4443 18.4513 78.5216 16.211 80.189 16.211C80.8872 16.211 81.4368 16.5574 81.699 17.1617V26.4368ZM87.0671 28.906C86.0776 28.672 85.5752 28.3233 85.5752 27.0609V10.2644L79.5632 12.0357V12.2525L79.6002 12.2496C80.4295 12.1826 80.992 12.2972 81.3186 12.5989C81.5744 12.8352 81.699 13.1977 81.699 13.7079V16.0106C81.1063 15.6322 80.4013 15.4481 79.5458 15.4481C77.8108 15.4481 76.225 16.1786 75.0814 17.5055C73.8892 18.8883 73.259 20.778 73.259 22.9697C73.2585 26.8842 75.1856 29.5152 78.0535 29.5152C79.7313 29.5152 81.0811 28.5959 81.699 27.0454V29.1267H87.0934V28.9112L87.0671 28.906ZM92.2233 12.5487C92.2233 11.3264 91.3017 10.4046 90.0791 10.4046C88.8624 10.4046 87.9104 11.3465 87.9104 12.5487C87.9104 13.7509 88.8633 14.6929 90.0791 14.6929C91.3017 14.6929 92.2233 13.771 92.2233 12.5487ZM93.6424 28.906C92.6528 28.672 92.1505 28.3233 92.1505 27.0609H92.1462V15.4879L86.7515 17.0367V17.2471L86.7839 17.2501C87.9512 17.354 88.2706 17.756 88.2706 19.12V29.1267H93.6699V28.9112L93.6424 28.906ZM107.466 28.906C106.476 28.672 105.974 28.3233 105.974 27.0609V15.4879L100.837 16.9856V17.1967L100.868 17.1999C101.822 17.3002 102.098 17.7252 102.098 19.0954V26.4109C101.78 27.0405 101.183 27.4144 100.46 27.4396C99.2869 27.4396 98.6412 26.6476 98.6412 25.2094V15.4882L93.2465 17.0371V17.2471L93.2788 17.2501C94.4461 17.3536 94.7659 17.7557 94.7659 19.12V25.3114C94.7631 25.7436 94.8007 26.1751 94.8782 26.6003L94.9753 27.0227C95.4321 28.6593 96.6288 29.5152 98.5036 29.5152C100.092 29.5152 101.484 28.5321 102.097 26.9939V29.1303H107.491V28.9147L107.466 28.906ZM128.423 29.1267V28.9108L128.396 28.9047C127.323 28.6571 126.905 28.1903 126.905 27.2399V19.3677C126.905 16.9131 125.526 15.4481 123.217 15.4481C121.534 15.4481 120.114 16.4208 119.568 17.936C119.134 16.3304 117.885 15.4481 116.038 15.4481C114.415 15.4481 113.144 16.3042 112.598 17.7505V15.4888L107.204 16.9743V17.186L107.236 17.1889C108.389 17.2912 108.723 17.7049 108.723 19.0339V29.1267H113.756V28.9112L113.73 28.9047C112.873 28.7034 112.597 28.3363 112.597 27.3943V18.371C112.823 17.8418 113.28 17.2148 114.183 17.2148C115.304 17.2148 115.872 17.9916 115.872 19.5221V29.1267H120.907V28.9112L120.881 28.9047C120.024 28.7034 119.748 28.3363 119.748 27.3943V19.3667C119.75 19.0665 119.726 18.7668 119.676 18.4707C119.917 17.8955 120.4 17.2148 121.339 17.2148C122.476 17.2148 123.029 17.9693 123.029 19.5221V29.1267H128.423Z" fill="black"/>
</g>
<defs>
<clipPath id="clip0_1746_2334">
<rect width="128" height="40" fill="white" transform="translate(0.422607)"/>
</clipPath>
</defs>
</svg>
