<svg width="142" height="40" viewBox="0 0 142 40" fill="none" xmlns="http://www.w3.org/2000/svg">
<g opacity="0.5" clip-path="url(#clip0_1746_2303)">
<path d="M1.02261 18.5C1.52261 15.9 3.82261 14.1 7.02261 14.1C10.7226 14.1 13.6226 15.7 13.6226 20.7V30H10.4226L10.0226 28C8.92261 29.4 7.42261 30.3 5.22261 30.3C2.52261 30.3 0.422607 28.6 0.422607 25.5C0.422607 22.4 3.22261 20.4 7.12261 20.4H9.72261V19.7C9.72261 17.9 8.42261 17.4 6.92261 17.4C5.82261 17.4 4.72261 17.8 4.22261 19.2L1.02261 18.5ZM6.12261 27C7.92261 27 9.72261 25.8 9.72261 23.8V23.5H7.22261C5.52261 23.4 4.52261 24.1 4.52261 25.5C4.52261 26.2 5.12261 27 6.12261 27Z" fill="black"/>
<path d="M76.4225 18.5C76.9225 15.9 79.2225 14.1 82.4225 14.1C86.1225 14.1 89.0225 15.7 89.0225 20.7V30H85.8225L85.4225 28C84.3225 29.4 82.8225 30.3 80.6225 30.3C77.9225 30.3 75.8225 28.6 75.8225 25.5C75.8225 22.4 78.6225 20.4 82.5225 20.4H85.1225V19.7C85.1225 17.9 83.8225 17.4 82.3225 17.4C81.2225 17.4 80.1225 17.8 79.6225 19.2L76.4225 18.5ZM81.5225 27C83.3225 27 85.1225 25.8 85.1225 23.8V23.5H82.5225C80.8225 23.5 79.8225 24.1 79.8225 25.5C79.9225 26.2 80.5225 27 81.5225 27Z" fill="black"/>
<path d="M92.5227 30.1V14.3H96.4227V16.9C97.5227 15 99.3227 14.1 101.023 14.1C101.723 14.1 102.323 14.2 102.923 14.4L102.223 18C101.723 17.7 101.223 17.5 100.623 17.5C98.3227 17.5 96.4227 19.4 96.4227 24.4V30L92.5227 30.1Z" fill="black"/>
<path d="M111.223 14.1C112.823 14.1 114.323 14.9 115.023 15.8V8H118.923V30.1H115.023V28.5C114.523 29.3 113.123 30.4 111.223 30.4C106.523 30.4 104.123 27.1 104.123 22.3C104.123 17.5 106.523 14.1 111.223 14.1ZM111.823 27C113.823 27 115.423 25.3 115.423 22.2C115.423 19.1 113.823 17.4 111.823 17.4C109.823 17.4 108.223 19.1 108.223 22.2C108.223 25.3 109.823 27 111.823 27Z" fill="black"/>
<path d="M132.923 16.6L130.623 18.7C129.923 17.7 128.823 17.3 128.023 17.3C127.223 17.3 126.523 17.8 126.523 18.6C126.523 19.3 127.123 19.8 128.023 20.1C130.223 20.9 133.723 21.6 133.723 24.9C133.723 27.8 131.523 30.1 128.123 30.1C124.823 30.1 122.623 27.8 121.923 25.9L125.023 24.2C125.623 25.7 126.623 26.8 128.223 26.8C129.423 26.8 130.223 26.2 130.223 25.1C130.223 23.8 128.223 23.5 126.323 22.7C124.623 22 123.123 20.9 123.123 18.5C123.123 16.1 125.123 13.9 128.123 13.9C130.123 14 132.023 15.1 132.923 16.6Z" fill="black"/>
<path d="M52.3226 14.3L49.5226 25.2L46.8226 14.3H43.2226L40.6226 25.2L38.4226 18.9L38.1226 19.6L36.9226 23.7L38.9226 30.1H42.3226L45.0226 19.9L47.7226 30.1H51.2226L56.2226 14.3H52.3226Z" fill="black"/>
<path d="M71.0227 14.3L68.2227 25.2L65.5227 14.3H61.9227L59.3227 25.2L57.1227 18.9L56.8227 19.6L55.5227 23.7L57.6227 30.1H61.0227L63.7227 19.9L66.4227 30.1H69.8227L74.9227 14.3H71.0227Z" fill="black"/>
<path d="M37.5225 14.3L32.5225 30H29.1225L26.4225 19.9L23.7225 30.1H20.3225L15.3225 14.4H19.2225L22.0225 25.2L24.7225 14.4H28.3225L31.0225 25.2L33.8225 14.4L37.5225 14.3Z" fill="black"/>
<path d="M138.823 25C140.323 25 141.423 26.1 141.423 27.6C141.423 29.1 140.323 30.2 138.823 30.2C137.323 30.2 136.223 29.1 136.223 27.6C136.223 26.1 137.323 25 138.823 25Z" fill="black"/>
</g>
<defs>
<clipPath id="clip0_1746_2303">
<rect width="141" height="40" fill="white" transform="translate(0.422607)"/>
</clipPath>
</defs>
</svg>
