<svg width="109" height="40" viewBox="0 0 109 40" fill="none" xmlns="http://www.w3.org/2000/svg">
<g opacity="0.5">
<path d="M104.837 14.2887L100.841 22.885L97.219 14.2887H93.6424L94.3893 16.0738C93.9336 15.6254 93.4108 15.2347 92.8223 14.9057C91.665 14.2595 90.4286 13.936 89.112 13.936C87.2928 13.936 85.6826 14.5572 84.2814 15.7992C83.7426 16.2818 83.3017 16.8069 82.944 17.3702C82.6682 16.8644 82.3356 16.3927 81.9324 15.9636C80.6608 14.6122 79.1127 13.9362 77.293 13.9362C76.4545 13.9362 75.669 14.0919 74.9345 14.4021C74.1979 14.7131 73.5164 15.179 72.8841 15.7995V9H69.411V14.2887H68.0053L64.0107 22.885L60.3879 14.2887H60.3786H56.8118H55.9831L50.8317 19.9366V9H47.3337V15.9326C46.829 15.4643 46.2641 15.0626 45.624 14.7481C44.5225 14.207 43.2786 13.9362 41.8952 13.9362C40.4006 13.9362 39.0483 14.2552 37.8391 14.893C36.6559 15.5172 35.7332 16.3745 35.0618 17.4556C34.7631 16.9303 34.4061 16.4445 33.9708 16.0073C32.5945 14.6272 30.8097 13.9362 28.6132 13.9362C26.5465 13.9362 24.8268 14.6272 23.456 16.0073C23.0468 16.42 22.7052 16.8689 22.4186 17.3445C22.1442 16.8489 21.8172 16.385 21.4193 15.9636C20.1467 14.6122 18.5998 13.9362 16.7808 13.9362C15.9438 13.9362 15.1566 14.0919 14.4231 14.4021C13.6878 14.7131 13.0048 15.179 12.3723 15.7995V14.289H8.89965V15.0616C8.62584 14.8587 8.33897 14.6739 8.02899 14.522C7.23016 14.1313 6.37884 13.9365 5.47201 13.9365C4.14767 13.9365 3.06072 14.3207 2.21191 15.0888C1.36135 15.8564 0.936063 16.7822 0.936063 17.865C0.936063 19.5442 2.06295 20.9415 4.31899 22.0579L5.49788 22.6367C6.51399 23.141 7.02267 23.6563 7.02267 24.1852C7.02267 24.4707 6.88125 24.7217 6.60015 24.9398C6.3183 25.1584 5.94602 25.2675 5.48482 25.2675C5.05828 25.2675 4.56793 25.1227 4.0178 24.8339C3.46692 24.5441 2.98562 24.1639 2.57641 23.6943L0.422607 25.9992C1.63691 27.5604 3.25917 28.341 5.2934 28.341C6.79383 28.341 7.99457 27.9459 8.8994 27.1615V32.999H12.3718V26.5408C13.0548 27.1787 13.7426 27.6386 14.4356 27.9191C15.1274 28.2012 15.8743 28.341 16.6786 28.341C18.4797 28.341 20.0397 27.6546 21.3552 26.2817C21.7586 25.8603 22.0935 25.4037 22.3728 24.9198C22.6698 25.4144 23.0277 25.8803 23.4613 26.3087C24.8366 27.6636 26.6179 28.3423 28.8056 28.3423C30.2153 28.3423 31.4314 28.0967 32.4583 27.6059C33.4827 27.1148 34.3637 26.3574 35.0972 25.3325L32.1496 23.9731C31.2101 24.8719 30.087 25.3202 28.7797 25.3202C27.686 25.3202 26.7862 25.0332 26.0813 24.4584C25.3769 23.8834 24.9444 23.1093 24.7819 22.1343H34.067C34.2612 23.6578 34.9286 25.0147 36.0834 26.2018C37.4708 27.6289 39.3912 28.3418 41.8427 28.3418C44.096 28.3418 45.9217 27.6791 47.333 26.3741V27.9891H50.8309V21.6747L56.751 27.9881H61.094L54.3696 20.8546L57.9284 16.9633L62.1109 26.9659L59.2427 32.999H62.8562L69.408 18.9592V27.9876H72.8816V26.54C73.5652 27.1782 74.2524 27.6374 74.9448 27.9184C75.6361 28.2004 76.3841 28.34 77.187 28.34C78.9911 28.34 80.5508 27.6538 81.8656 26.2815C82.2821 25.8463 82.625 25.3732 82.9106 24.8711C83.2093 25.3552 83.569 25.8151 84.0038 26.2445C85.4173 27.6419 87.1243 28.3405 89.1231 28.3405C90.4826 28.3405 91.7248 28.0233 92.8529 27.3906C93.9808 26.7563 94.8723 25.8763 95.5254 24.7522C96.1786 23.6291 96.5041 22.4233 96.5051 21.1336L98.9445 26.9669L96.0773 33H99.6909L108.423 14.289L104.837 14.2887ZM6.77926 19.6778L5.49763 19.0481C4.94247 18.7793 4.59355 18.5677 4.45288 18.4124C4.31246 18.2575 4.24212 18.0869 4.24212 17.9025C4.24212 17.659 4.35341 17.4554 4.57522 17.2915C4.79678 17.1281 5.10374 17.0465 5.49763 17.0465C6.21506 17.0465 7.01363 17.4741 7.89459 18.3307L8.89915 17.3437V20.9935C8.37589 20.5494 7.67253 20.1107 6.77926 19.6778ZM18.6083 23.8335C17.9627 24.5421 17.1684 24.8958 16.2259 24.8958C15.253 24.8958 14.4459 24.5471 13.8046 23.8514C13.163 23.1557 12.8418 22.2435 12.8418 21.1162C12.8418 20.0116 13.163 19.1173 13.8046 18.4328C14.4459 17.7484 15.253 17.4059 16.2259 17.4059C17.1916 17.4059 17.9916 17.7541 18.6257 18.4501C19.2584 19.1465 19.5755 20.0388 19.5755 21.1269C19.575 22.2235 19.2524 23.1265 18.6083 23.8335ZM24.9358 19.4258C25.329 18.5787 25.7575 17.9869 26.2185 17.6507C26.955 17.1142 27.8111 16.8451 28.7855 16.8451C29.6848 16.8451 30.4748 17.0844 31.1538 17.5625C31.8356 18.0414 32.2908 18.6627 32.5214 19.4258H24.9358ZM45.4155 23.6184C44.5416 24.6683 43.323 25.1931 41.759 25.1931C40.492 25.1931 39.4698 24.8236 38.6914 24.0862C37.9132 23.3488 37.5243 22.3971 37.5243 21.2321C37.5243 20.0335 37.928 19.0516 38.7361 18.2842C39.545 17.5176 40.603 17.1341 41.9118 17.1341C42.631 17.1341 43.258 17.2431 43.7913 17.4616C44.3256 17.6794 44.8677 18.0701 45.4155 18.6327L47.333 17.5958V24.9091L45.4155 23.6184ZM78.9266 23.8999C78.283 24.6086 77.4884 24.9623 76.5454 24.9623C75.573 24.9623 74.7634 24.6136 74.1223 23.9179C73.4805 23.2222 73.1607 22.3102 73.1607 21.1824C73.1607 20.0787 73.4805 19.184 74.1223 18.4998C74.7641 17.8153 75.5725 17.4729 76.5454 17.4729C77.512 17.4729 78.3106 17.8211 78.9441 18.517C79.5774 19.2135 79.8954 20.1057 79.8954 21.1943C79.8954 22.2907 79.5726 23.1925 78.9266 23.8999ZM91.6999 24.1569C91.0558 24.8649 90.26 25.2191 89.3175 25.2191C88.3441 25.2191 87.5375 24.8704 86.8957 24.1747C86.2533 23.479 85.9346 22.5667 85.9346 21.4391C85.9346 20.335 86.2538 19.4408 86.8957 18.7563C87.5375 18.0719 88.3441 17.7299 89.3175 17.7299C90.2831 17.7299 91.0827 18.0779 91.7172 18.7733C92.3505 19.47 92.668 20.3623 92.668 21.4511C92.668 22.547 92.3452 23.4495 91.6999 24.1569Z" fill="black"/>
<path d="M77.0806 24.2406C77.6385 24.2406 78.0907 23.7909 78.0907 23.2362C78.0907 22.6814 77.6385 22.2318 77.0806 22.2318C76.5228 22.2318 76.0706 22.6814 76.0706 23.2362C76.0706 23.7909 76.5228 24.2406 77.0806 24.2406Z" fill="black"/>
<path d="M89.6429 23.2357C89.6429 23.79 89.191 24.2394 88.6341 24.2394C88.0752 24.2394 87.624 23.79 87.624 23.2357C87.624 22.6811 88.0764 22.2313 88.6341 22.2313C89.191 22.2318 89.6429 22.6811 89.6429 23.2357Z" fill="black"/>
</g>
</svg>
