<svg width="669" height="30" viewBox="0 0 669 30" fill="none" xmlns="http://www.w3.org/2000/svg">
<g filter="url(#filter0_b_115_14609)">
<path d="M0 0H669V30H0V0Z" fill="#F9F9F9"/>
</g>
<g opacity="0.2">
<line x1="209.905" y1="11.3309" x2="209.905" y2="18.4485" stroke="#B3B6CB" stroke-width="0.544704" stroke-linecap="round"/>
<line x1="240.515" y1="11.3309" x2="240.515" y2="18.4485" stroke="#B3B6CB" stroke-width="0.544704" stroke-linecap="round"/>
<line x1="271.132" y1="11.3309" x2="271.132" y2="18.4485" stroke="#B3B6CB" stroke-width="0.544704" stroke-linecap="round"/>
<line x1="301.741" y1="11.3309" x2="301.741" y2="18.4485" stroke="#B3B6CB" stroke-width="0.544704" stroke-linecap="round"/>
<line x1="332.358" y1="11.3309" x2="332.358" y2="18.4485" stroke="#B3B6CB" stroke-width="0.544704" stroke-linecap="round"/>
</g>
<path fill-rule="evenodd" clip-rule="evenodd" d="M229.644 17.5998C229.644 18.3421 229.317 18.6966 228.659 18.6966H220.032C219.378 18.6966 219.047 18.3421 219.047 17.5998V12.3937C219.047 11.6465 219.378 11.2969 220.032 11.2969H228.659C229.317 11.2969 229.644 11.6465 229.644 12.3937V17.5998ZM227.271 19.9988C227.271 20.2191 227.116 20.3963 226.923 20.3963H221.749C221.555 20.3963 221.396 20.2191 221.396 19.9988C221.396 19.7785 221.555 19.6013 221.749 19.6013H226.923C227.116 19.6013 227.271 19.7785 227.271 19.9988Z" fill="black" fill-opacity="0.6"/>
<g opacity="0.6">
<path fill-rule="evenodd" clip-rule="evenodd" d="M189.436 11.1969C189.327 11.1969 189.238 11.296 189.238 11.4182V17.5646C189.238 17.6868 189.327 17.7859 189.436 17.7859H198.267C198.377 17.7859 198.466 17.6868 198.466 17.5646V11.4182C198.466 11.296 198.377 11.1969 198.267 11.1969H189.436ZM188.531 11.4182C188.531 10.8615 188.936 10.4102 189.436 10.4102H198.267C198.767 10.4102 199.172 10.8615 199.172 11.4182V17.5646C199.172 18.1213 198.767 18.5726 198.267 18.5726H189.436C188.936 18.5726 188.531 18.1213 188.531 17.5646V11.4182Z" fill="black" fill-opacity="0.6"/>
<path fill-rule="evenodd" clip-rule="evenodd" d="M190.739 20.6378C190.739 20.4206 190.897 20.2445 191.092 20.2445H196.611C196.806 20.2445 196.965 20.4206 196.965 20.6378C196.965 20.8551 196.806 21.0312 196.611 21.0312H191.092C190.897 21.0312 190.739 20.8551 190.739 20.6378Z" fill="black" fill-opacity="0.6"/>
<path fill-rule="evenodd" clip-rule="evenodd" d="M192.196 17.7859C192.391 17.7859 192.549 17.962 192.549 18.1793V20.6378C192.549 20.8551 192.391 21.0312 192.196 21.0312C192.001 21.0312 191.843 20.8551 191.843 20.6378V18.1793C191.843 17.962 192.001 17.7859 192.196 17.7859Z" fill="black" fill-opacity="0.6"/>
<path fill-rule="evenodd" clip-rule="evenodd" d="M195.507 17.7859C195.703 17.7859 195.861 17.962 195.861 18.1793V20.6378C195.861 20.8551 195.703 21.0312 195.507 21.0312C195.312 21.0312 195.154 20.8551 195.154 20.6378V18.1793C195.154 17.962 195.312 17.7859 195.507 17.7859Z" fill="black" fill-opacity="0.6"/>
</g>
<g opacity="0.6">
<path fill-rule="evenodd" clip-rule="evenodd" d="M282.506 10.3125H288.363C288.861 10.3125 289.259 10.7757 289.259 11.3402V20.1026C289.259 20.667 288.861 21.1302 288.363 21.1302H282.506C282.008 21.1302 281.609 20.667 281.609 20.1026V11.3402C281.609 10.7757 282.008 10.3125 282.506 10.3125ZM288.711 11.2786C288.685 11.0383 288.513 10.8529 288.304 10.8529H282.567L282.515 10.8567C282.313 10.8867 282.157 11.0912 282.157 11.3397V20.1021L282.16 20.1632C282.186 20.4034 282.358 20.5889 282.567 20.5889H288.304L288.355 20.5851C288.557 20.5551 288.714 20.3506 288.714 20.1021V11.3397L288.711 11.2786ZM288.134 18.4253C288.283 18.4253 288.404 18.3042 288.404 18.1549C288.404 18.0055 288.283 17.8844 288.134 17.8844H282.846C282.697 17.8844 282.576 18.0055 282.576 18.1549C282.576 18.3042 282.697 18.4253 282.846 18.4253H288.134ZM285.006 19.5046C285.006 19.2055 285.224 18.9638 285.492 18.9638C285.76 18.9638 285.978 19.2055 285.978 19.5046C285.978 19.8038 285.76 20.0455 285.492 20.0455C285.224 20.0455 285.006 19.8038 285.006 19.5046Z" fill="black" fill-opacity="0.6"/>
</g>
<g opacity="0.6">
<path fill-rule="evenodd" clip-rule="evenodd" d="M249.953 18.9802L249.953 12.4579C249.953 11.9032 250.369 11.4595 250.876 11.4595L258.744 11.4595C259.251 11.4595 259.667 11.9032 259.667 12.4579L259.667 18.9802C259.667 19.5349 259.251 19.9785 258.744 19.9785L250.876 19.9785C250.369 19.9785 249.953 19.5349 249.953 18.9802ZM250.819 12.0712C250.604 12.0994 250.437 12.2915 250.437 12.524L250.437 18.9132L250.441 18.9705C250.468 19.1954 250.651 19.3696 250.874 19.3696L258.742 19.3696L258.797 19.3661C259.013 19.3379 259.18 19.1458 259.18 18.9132L259.18 12.524L259.176 12.4668C259.149 12.2419 258.966 12.0676 258.742 12.0676L250.874 12.0676L250.819 12.0712ZM257.24 12.6509C257.24 12.5168 257.131 12.4081 256.997 12.4081C256.863 12.4081 256.754 12.5168 256.754 12.6509L256.754 18.6559C256.754 18.79 256.863 18.8987 256.997 18.8987C257.131 18.8987 257.24 18.79 257.24 18.6559L257.24 12.6509ZM258.217 16.1895C257.948 16.1895 257.731 15.9472 257.731 15.6486C257.731 15.3501 257.948 15.1077 258.217 15.1077C258.485 15.1077 258.702 15.3501 258.702 15.6486C258.702 15.9472 258.485 16.1895 258.217 16.1895Z" fill="black" fill-opacity="0.6"/>
</g>
<g opacity="0.6">
<path fill-rule="evenodd" clip-rule="evenodd" d="M311.773 17.8456V12.8762C311.773 12.3978 312.15 12.048 312.581 12.048H319.466C319.896 12.048 320.273 12.3978 320.273 12.8762V17.8456C320.273 18.324 319.896 18.6738 319.466 18.6738H312.581C312.15 18.6738 311.773 18.324 311.773 17.8456ZM312.531 12.5235C312.342 12.5454 312.196 12.6948 312.196 12.8757V17.8451L312.199 17.8896C312.223 18.0646 312.384 18.2001 312.579 18.2001H319.463L319.512 18.1973C319.7 18.1754 319.846 18.026 319.846 17.8451V12.8757L319.843 12.8312C319.819 12.6562 319.659 12.5207 319.463 12.5207H312.579L312.531 12.5235ZM313.473 14.6287C313.473 14.5114 313.378 14.4163 313.261 14.4163C313.143 14.4163 313.048 14.5114 313.048 14.6287V16.0969C313.048 16.2142 313.143 16.3094 313.261 16.3094C313.378 16.3094 313.473 16.2142 313.473 16.0969V14.6287ZM318.577 15.8339C318.342 15.8339 318.152 15.6219 318.152 15.3606C318.152 15.0994 318.342 14.8874 318.577 14.8874C318.812 14.8874 319.002 15.0994 319.002 15.3606C319.002 15.6219 318.812 15.8339 318.577 15.8339Z" fill="black" fill-opacity="0.6"/>
</g>
<g opacity="0.6">
<path fill-rule="evenodd" clip-rule="evenodd" d="M344.634 10.9062H349.097C349.526 10.9062 349.84 11.3258 349.84 11.8055V19.4726C349.84 19.9523 349.526 20.3718 349.097 20.3718H344.634C344.205 20.3718 343.891 19.9523 343.891 19.4726V11.8055C343.891 11.3258 344.205 10.9062 344.634 10.9062ZM349.411 11.7525C349.391 11.5423 349.257 11.38 349.095 11.38H344.632L344.592 11.3833C344.435 11.4096 344.314 11.5885 344.314 11.806V19.473L344.316 19.5265C344.336 19.7368 344.47 19.899 344.632 19.899H349.095L349.135 19.8957C349.292 19.8694 349.413 19.6905 349.413 19.473V11.806L349.411 11.7525ZM347.478 12.7988C347.608 12.7988 347.714 12.6929 347.714 12.5622C347.714 12.4315 347.608 12.3256 347.478 12.3256H346.251C346.12 12.3256 346.015 12.4315 346.015 12.5622C346.015 12.6929 346.12 12.7988 346.251 12.7988H347.478ZM346.446 18.4808C346.446 18.2191 346.636 18.0075 346.871 18.0075C347.106 18.0075 347.296 18.2191 347.296 18.4808C347.296 18.7425 347.106 18.9541 346.871 18.9541C346.636 18.9541 346.446 18.7425 346.446 18.4808Z" fill="black" fill-opacity="0.6"/>
</g>
<path opacity="0.3" d="M493.945 13.4375C492.881 13.4375 491.916 13.8255 491.173 14.4566L490.414 13.7158C490.16 13.4689 489.727 13.6413 489.727 13.9901V16.1811C489.727 16.3967 489.907 16.5731 490.128 16.5731H492.374C492.732 16.5731 492.913 16.1498 492.66 15.9028L491.892 15.1542C492.451 14.6996 493.162 14.4174 493.949 14.4174C495.219 14.4174 496.316 15.1385 496.838 16.1811C496.947 16.4006 497.204 16.5103 497.441 16.432C497.726 16.3418 497.871 16.0243 497.742 15.7578C497.051 14.386 495.613 13.4375 493.945 13.4375Z" fill="black"/>
<path d="M511.484 13.4375C512.549 13.4375 513.513 13.8255 514.257 14.4566L515.016 13.7158C515.269 13.4689 515.703 13.6413 515.703 13.9901V16.1811C515.703 16.3967 515.522 16.5731 515.301 16.5731H513.055C512.698 16.5731 512.517 16.1498 512.77 15.9028L513.538 15.1542C512.979 14.6996 512.268 14.4174 511.48 14.4174C510.211 14.4174 509.114 15.1385 508.592 16.1811C508.483 16.4006 508.226 16.5103 507.989 16.432C507.704 16.3418 507.559 16.0243 507.688 15.7578C508.379 14.386 509.817 13.4375 511.484 13.4375Z" fill="black"/>
<rect x="540.583" y="8.07748" width="39.4695" height="13.9273" rx="3.13555" stroke="#D2D4D8" stroke-width="0.447936"/>
<path d="M551.482 15.7926H550.291V15.3118H551.482C551.713 15.3118 551.9 15.2751 552.042 15.2016C552.185 15.1281 552.289 15.026 552.355 14.8954C552.422 14.7647 552.456 14.6157 552.456 14.4483C552.456 14.2952 552.422 14.1513 552.355 14.0166C552.289 13.8819 552.185 13.7737 552.042 13.692C551.9 13.6083 551.713 13.5665 551.482 13.5665H550.429V17.541H549.838V13.0827H551.482C551.819 13.0827 552.104 13.1408 552.336 13.2572C552.569 13.3736 552.746 13.5348 552.866 13.741C552.987 13.9451 553.047 14.1789 553.047 14.4422C553.047 14.728 552.987 14.9719 552.866 15.174C552.746 15.3761 552.569 15.5303 552.336 15.6364C552.104 15.7405 551.819 15.7926 551.482 15.7926ZM554.275 14.7484V17.541H553.708V14.2279H554.259L554.275 14.7484ZM555.31 14.2095L555.307 14.7362C555.26 14.726 555.215 14.7198 555.172 14.7178C555.131 14.7137 555.084 14.7117 555.031 14.7117C554.9 14.7117 554.785 14.7321 554.685 14.7729C554.585 14.8137 554.5 14.8709 554.431 14.9444C554.361 15.0179 554.306 15.1057 554.266 15.2077C554.227 15.3078 554.201 15.418 554.189 15.5384L554.03 15.6303C554.03 15.4302 554.049 15.2424 554.088 15.0669C554.129 14.8913 554.191 14.7362 554.275 14.6014C554.358 14.4647 554.465 14.3585 554.593 14.283C554.724 14.2054 554.879 14.1666 555.059 14.1666C555.099 14.1666 555.146 14.1717 555.199 14.1819C555.253 14.1901 555.289 14.1993 555.31 14.2095ZM557.147 17.6023C556.916 17.6023 556.707 17.5635 556.519 17.4859C556.333 17.4063 556.173 17.295 556.038 17.1521C555.906 17.0092 555.804 16.8398 555.732 16.6438C555.661 16.4479 555.625 16.2335 555.625 16.0008V15.8722C555.625 15.6027 555.665 15.3629 555.745 15.1526C555.824 14.9403 555.932 14.7607 556.069 14.6137C556.206 14.4667 556.361 14.3555 556.535 14.2799C556.708 14.2044 556.888 14.1666 557.073 14.1666C557.31 14.1666 557.514 14.2075 557.686 14.2891C557.859 14.3708 558.001 14.4851 558.111 14.6321C558.222 14.777 558.303 14.9485 558.356 15.1465C558.41 15.3425 558.436 15.5568 558.436 15.7895V16.0437H555.962V15.5813H557.87V15.5384C557.861 15.3914 557.831 15.2486 557.778 15.1097C557.727 14.9709 557.645 14.8566 557.533 14.7668C557.42 14.677 557.267 14.6321 557.073 14.6321C556.945 14.6321 556.826 14.6596 556.718 14.7147C556.61 14.7678 556.517 14.8474 556.44 14.9536C556.362 15.0597 556.302 15.1894 556.259 15.3425C556.216 15.4956 556.195 15.6721 556.195 15.8722V16.0008C556.195 16.158 556.216 16.306 556.259 16.4448C556.304 16.5816 556.368 16.702 556.452 16.8061C556.538 16.9102 556.641 16.9919 556.761 17.0511C556.884 17.1103 557.022 17.1399 557.178 17.1399C557.378 17.1399 557.547 17.0991 557.686 17.0174C557.825 16.9357 557.946 16.8265 558.05 16.6898L558.393 16.9623C558.322 17.0705 558.231 17.1736 558.121 17.2716C558.01 17.3695 557.875 17.4492 557.713 17.5104C557.554 17.5716 557.365 17.6023 557.147 17.6023ZM560.062 17.0297L560.968 14.2279H561.547L560.356 17.541H559.976L560.062 17.0297ZM559.306 14.2279L560.24 17.045L560.304 17.541H559.924L558.724 14.2279H559.306ZM562.708 14.2279V17.541H562.138V14.2279H562.708ZM562.095 13.3491C562.095 13.2572 562.123 13.1796 562.178 13.1163C562.235 13.0531 562.319 13.0214 562.429 13.0214C562.537 13.0214 562.62 13.0531 562.677 13.1163C562.736 13.1796 562.766 13.2572 562.766 13.3491C562.766 13.4368 562.736 13.5124 562.677 13.5756C562.62 13.6369 562.537 13.6675 562.429 13.6675C562.319 13.6675 562.235 13.6369 562.178 13.5756C562.123 13.5124 562.095 13.4368 562.095 13.3491ZM564.992 17.6023C564.761 17.6023 564.552 17.5635 564.364 17.4859C564.178 17.4063 564.018 17.295 563.883 17.1521C563.751 17.0092 563.649 16.8398 563.577 16.6438C563.506 16.4479 563.47 16.2335 563.47 16.0008V15.8722C563.47 15.6027 563.51 15.3629 563.59 15.1526C563.669 14.9403 563.777 14.7607 563.914 14.6137C564.051 14.4667 564.206 14.3555 564.38 14.2799C564.553 14.2044 564.733 14.1666 564.918 14.1666C565.155 14.1666 565.359 14.2075 565.531 14.2891C565.704 14.3708 565.846 14.4851 565.956 14.6321C566.067 14.777 566.148 14.9485 566.201 15.1465C566.255 15.3425 566.281 15.5568 566.281 15.7895V16.0437H563.807V15.5813H565.715V15.5384C565.706 15.3914 565.676 15.2486 565.623 15.1097C565.572 14.9709 565.49 14.8566 565.378 14.7668C565.265 14.677 565.112 14.6321 564.918 14.6321C564.79 14.6321 564.671 14.6596 564.563 14.7147C564.455 14.7678 564.362 14.8474 564.285 14.9536C564.207 15.0597 564.147 15.1894 564.104 15.3425C564.061 15.4956 564.04 15.6721 564.04 15.8722V16.0008C564.04 16.158 564.061 16.306 564.104 16.4448C564.149 16.5816 564.213 16.702 564.297 16.8061C564.383 16.9102 564.486 16.9919 564.606 17.0511C564.729 17.1103 564.867 17.1399 565.023 17.1399C565.223 17.1399 565.392 17.0991 565.531 17.0174C565.67 16.9357 565.791 16.8265 565.895 16.6898L566.238 16.9623C566.167 17.0705 566.076 17.1736 565.966 17.2716C565.855 17.3695 565.72 17.4492 565.558 17.5104C565.399 17.5716 565.21 17.6023 564.992 17.6023ZM567.781 16.9531L568.633 14.2279H569.006L568.933 14.7699L568.066 17.541H567.702L567.781 16.9531ZM567.209 14.2279L567.935 16.9837L567.987 17.541H567.604L566.642 14.2279H567.209ZM569.821 16.9623L570.513 14.2279H571.076L570.115 17.541H569.735L569.821 16.9623ZM569.089 14.2279L569.922 16.9072L570.017 17.541H569.655L568.764 14.7637L568.691 14.2279H569.089Z" fill="black"/>
<rect x="587.445" y="7.85352" width="37.2927" height="14.3752" rx="3.35952" fill="#3366FF"/>
<path d="M597.629 16.3927C597.629 16.3009 597.614 16.2192 597.586 16.1478C597.559 16.0763 597.511 16.011 597.442 15.9518C597.373 15.8926 597.275 15.8354 597.148 15.7803C597.023 15.7232 596.864 15.665 596.67 15.6058C596.458 15.5405 596.262 15.468 596.082 15.3884C595.905 15.3067 595.75 15.2128 595.617 15.1067C595.484 14.9985 595.381 14.875 595.308 14.7362C595.234 14.5953 595.197 14.433 595.197 14.2493C595.197 14.0676 595.235 13.9023 595.311 13.7532C595.388 13.6042 595.498 13.4756 595.638 13.3674C595.781 13.2572 595.95 13.1725 596.144 13.1133C596.338 13.052 596.552 13.0214 596.787 13.0214C597.117 13.0214 597.402 13.0827 597.641 13.2051C597.882 13.3276 598.067 13.492 598.195 13.6981C598.326 13.9043 598.391 14.1319 598.391 14.381H597.629C597.629 14.234 597.597 14.1044 597.534 13.9921C597.473 13.8778 597.379 13.7879 597.252 13.7226C597.128 13.6573 596.969 13.6246 596.777 13.6246C596.596 13.6246 596.445 13.6522 596.324 13.7073C596.204 13.7624 596.114 13.8369 596.055 13.9308C595.996 14.0247 595.966 14.1309 595.966 14.2493C595.966 14.333 595.985 14.4095 596.024 14.479C596.063 14.5463 596.122 14.6096 596.202 14.6688C596.281 14.726 596.381 14.7801 596.502 14.8311C596.622 14.8821 596.764 14.9311 596.927 14.9781C597.174 15.0516 597.39 15.1332 597.574 15.223C597.757 15.3108 597.91 15.4108 598.033 15.5231C598.155 15.6354 598.247 15.763 598.308 15.9059C598.37 16.0467 598.4 16.207 598.4 16.3866C598.4 16.5744 598.363 16.7439 598.287 16.8949C598.212 17.0439 598.103 17.1715 597.962 17.2777C597.824 17.3818 597.656 17.4624 597.46 17.5196C597.266 17.5747 597.05 17.6023 596.811 17.6023C596.597 17.6023 596.385 17.5737 596.177 17.5165C595.971 17.4594 595.783 17.3726 595.614 17.2562C595.444 17.1378 595.31 16.9909 595.21 16.8153C595.11 16.6377 595.06 16.4305 595.06 16.1937H595.828C595.828 16.3386 595.853 16.4621 595.902 16.5642C595.953 16.6663 596.023 16.75 596.113 16.8153C596.203 16.8786 596.307 16.9255 596.425 16.9562C596.546 16.9868 596.674 17.0021 596.811 17.0021C596.991 17.0021 597.141 16.9766 597.261 16.9255C597.384 16.8745 597.476 16.8031 597.537 16.7112C597.598 16.6193 597.629 16.5132 597.629 16.3927ZM600.874 16.8765V15.2965C600.874 15.1781 600.853 15.0761 600.81 14.9903C600.767 14.9046 600.702 14.8382 600.614 14.7913C600.528 14.7443 600.42 14.7209 600.29 14.7209C600.169 14.7209 600.065 14.7413 599.977 14.7821C599.89 14.8229 599.821 14.878 599.772 14.9474C599.723 15.0169 599.699 15.0954 599.699 15.1832H598.964C598.964 15.0526 598.995 14.926 599.059 14.8035C599.122 14.6811 599.214 14.5718 599.334 14.4759C599.455 14.3799 599.599 14.3044 599.766 14.2493C599.933 14.1942 600.121 14.1666 600.329 14.1666C600.578 14.1666 600.799 14.2085 600.991 14.2922C601.185 14.3759 601.337 14.5024 601.447 14.6719C601.559 14.8393 601.615 15.0495 601.615 15.3026V16.7755C601.615 16.9266 601.626 17.0623 601.646 17.1828C601.669 17.3012 601.7 17.4042 601.741 17.492V17.541H600.985C600.95 17.4614 600.922 17.3604 600.902 17.2379C600.884 17.1133 600.874 16.9929 600.874 16.8765ZM600.982 15.5262L600.988 15.9824H600.458C600.321 15.9824 600.201 15.9957 600.097 16.0222C599.993 16.0467 599.906 16.0835 599.836 16.1325C599.767 16.1815 599.715 16.2407 599.68 16.3101C599.646 16.3795 599.628 16.4581 599.628 16.5458C599.628 16.6336 599.649 16.7143 599.689 16.7877C599.73 16.8592 599.789 16.9153 599.867 16.9562C599.947 16.997 600.043 17.0174 600.155 17.0174C600.306 17.0174 600.438 16.9868 600.55 16.9255C600.664 16.8623 600.754 16.7857 600.819 16.6959C600.885 16.604 600.919 16.5173 600.923 16.4356L601.162 16.7633C601.138 16.8469 601.096 16.9368 601.037 17.0327C600.978 17.1287 600.9 17.2205 600.804 17.3083C600.71 17.394 600.597 17.4645 600.464 17.5196C600.334 17.5747 600.182 17.6023 600.011 17.6023C599.795 17.6023 599.602 17.5594 599.432 17.4737C599.263 17.3859 599.13 17.2685 599.034 17.1215C598.938 16.9725 598.89 16.8041 598.89 16.6163C598.89 16.4407 598.923 16.2856 598.988 16.1508C599.056 16.0141 599.154 15.8998 599.282 15.8079C599.413 15.716 599.572 15.6466 599.76 15.5997C599.948 15.5507 600.162 15.5262 600.403 15.5262H600.982ZM603.416 16.9562L604.227 14.2279H604.993L603.842 17.541H603.364L603.416 16.9562ZM602.794 14.2279L603.621 16.9684L603.661 17.541H603.183L602.026 14.2279H602.794ZM606.867 17.6023C606.622 17.6023 606.4 17.5625 606.202 17.4828C606.006 17.4012 605.839 17.2879 605.7 17.1429C605.564 16.998 605.458 16.8276 605.385 16.6316C605.311 16.4356 605.275 16.2243 605.275 15.9977V15.8753C605.275 15.616 605.312 15.3812 605.388 15.171C605.463 14.9607 605.569 14.7811 605.703 14.6321C605.838 14.481 605.997 14.3657 606.181 14.286C606.365 14.2064 606.564 14.1666 606.778 14.1666C607.015 14.1666 607.222 14.2064 607.4 14.286C607.577 14.3657 607.724 14.4779 607.841 14.6229C607.959 14.7658 608.047 14.9362 608.104 15.1342C608.163 15.3322 608.193 15.5507 608.193 15.7895V16.1049H605.633V15.5752H607.464V15.517C607.46 15.3843 607.433 15.2598 607.384 15.1434C607.337 15.0271 607.265 14.9332 607.167 14.8617C607.069 14.7903 606.938 14.7545 606.775 14.7545C606.653 14.7545 606.543 14.7811 606.447 14.8342C606.354 14.8852 606.275 14.9597 606.212 15.0577C606.148 15.1557 606.099 15.2741 606.065 15.4129C606.032 15.5497 606.016 15.7038 606.016 15.8753V15.9977C606.016 16.1427 606.035 16.2774 606.074 16.4019C606.115 16.5244 606.174 16.6316 606.251 16.7234C606.329 16.8153 606.423 16.8878 606.533 16.9409C606.643 16.9919 606.769 17.0174 606.91 17.0174C607.087 17.0174 607.246 16.9817 607.384 16.9102C607.523 16.8388 607.644 16.7377 607.746 16.6071L608.135 16.9837C608.063 17.0878 607.97 17.1879 607.856 17.2838C607.742 17.3777 607.602 17.4543 607.436 17.5135C607.273 17.5727 607.083 17.6023 606.867 17.6023Z" fill="white"/>
<path d="M620.156 14.2012L618.477 15.8809L616.797 14.2012" stroke="white" stroke-width="0.447936" stroke-linecap="round" stroke-linejoin="round"/>
<line x1="614.099" y1="7.68555" x2="614.099" y2="22.0193" stroke="#0F41D6" stroke-width="0.447936"/>
<circle opacity="0.1" cx="640.862" cy="15.0205" r="7.16697" fill="#EBEDF5"/>
<path fill-rule="evenodd" clip-rule="evenodd" d="M641.867 15.0215C641.867 15.5782 641.415 16.0294 640.859 16.0294C640.302 16.0294 639.851 15.5782 639.851 15.0215C639.851 14.4649 640.302 14.0137 640.859 14.0137C641.415 14.0137 641.867 14.4649 641.867 15.0215ZM644.892 15.0215C644.892 15.5782 644.44 16.0294 643.884 16.0294C643.327 16.0294 642.876 15.5782 642.876 15.0215C642.876 14.4649 643.327 14.0137 643.884 14.0137C644.44 14.0137 644.892 14.4649 644.892 15.0215ZM637.836 16.0294C638.393 16.0294 638.844 15.5782 638.844 15.0216C638.844 14.4649 638.393 14.0137 637.836 14.0137C637.279 14.0137 636.828 14.4649 636.828 15.0216C636.828 15.5782 637.279 16.0294 637.836 16.0294Z" fill="black"/>
<defs>
<filter id="filter0_b_115_14609" x="-16.5392" y="-16.5392" width="702.078" height="63.0783" filterUnits="userSpaceOnUse" color-interpolation-filters="sRGB">
<feFlood flood-opacity="0" result="BackgroundImageFix"/>
<feGaussianBlur in="BackgroundImageFix" stdDeviation="8.26958"/>
<feComposite in2="SourceAlpha" operator="in" result="effect1_backgroundBlur_115_14609"/>
<feBlend mode="normal" in="SourceGraphic" in2="effect1_backgroundBlur_115_14609" result="shape"/>
</filter>
</defs>
</svg>
