<svg width="262" height="31" viewBox="0 0 262 31" fill="none" xmlns="http://www.w3.org/2000/svg">
<path d="M0 0L261.999 0V30.5397L0 30.5397L0 0Z" fill="#E0E8FF"/>
<path d="M13.9633 12.7112L11.5734 19.6445H10.1286L13.1392 11.6454H14.0622L13.9633 12.7112ZM15.9631 19.6445L13.5677 12.7112L13.4633 11.6454H14.3918L17.4134 19.6445H15.9631ZM15.8477 16.6778V17.7711H11.4965V16.6778H15.8477ZM21.8031 18.4139V11.2059H23.1326V19.6445H21.9294L21.8031 18.4139ZM17.9354 16.7383V16.6229C17.9354 16.1724 17.9885 15.7622 18.0947 15.3923C18.2009 15.0187 18.3547 14.6982 18.5562 14.4308C18.7576 14.1598 19.003 13.9529 19.2924 13.81C19.5817 13.6635 19.9077 13.5903 20.2703 13.5903C20.6292 13.5903 20.9442 13.6599 21.2152 13.799C21.4863 13.9382 21.717 14.1378 21.9074 14.3979C22.0979 14.6542 22.2499 14.9619 22.3634 15.3208C22.477 15.6761 22.5576 16.0717 22.6052 16.5075V16.8756C22.5576 17.3005 22.477 17.6887 22.3634 18.0403C22.2499 18.3919 22.0979 18.6959 21.9074 18.9523C21.717 19.2087 21.4844 19.4065 21.2097 19.5456C20.9387 19.6848 20.6219 19.7544 20.2593 19.7544C19.9003 19.7544 19.5762 19.6793 19.2869 19.5292C19.0012 19.379 18.7576 19.1684 18.5562 18.8974C18.3547 18.6263 18.2009 18.3077 18.0947 17.9414C17.9885 17.5715 17.9354 17.1705 17.9354 16.7383ZM19.2594 16.6229V16.7383C19.2594 17.0093 19.2832 17.262 19.3308 17.4964C19.3821 17.7308 19.4608 17.9378 19.5671 18.1172C19.6733 18.293 19.8106 18.4322 19.9791 18.5348C20.1512 18.6337 20.3563 18.6831 20.5944 18.6831C20.8947 18.6831 21.142 18.6172 21.3361 18.4853C21.5302 18.3535 21.6822 18.1758 21.7921 17.9524C21.9056 17.7253 21.9825 17.4726 22.0228 17.1943V16.1999C22.0008 15.9838 21.9551 15.7823 21.8855 15.5955C21.8195 15.4087 21.7298 15.2458 21.6163 15.1066C21.5027 14.9637 21.3617 14.8539 21.1932 14.7769C21.0284 14.6964 20.8325 14.6561 20.6054 14.6561C20.3637 14.6561 20.1586 14.7074 19.9901 14.8099C19.8216 14.9125 19.6824 15.0535 19.5725 15.2329C19.4663 15.4124 19.3876 15.6212 19.3363 15.8592C19.285 16.0973 19.2594 16.3519 19.2594 16.6229ZM28.143 18.4139V11.2059H29.4725V19.6445H28.2694L28.143 18.4139ZM24.2753 16.7383V16.6229C24.2753 16.1724 24.3284 15.7622 24.4346 15.3923C24.5409 15.0187 24.6947 14.6982 24.8961 14.4308C25.0976 14.1598 25.343 13.9529 25.6323 13.81C25.9216 13.6635 26.2476 13.5903 26.6102 13.5903C26.9692 13.5903 27.2841 13.6599 27.5552 13.799C27.8262 13.9382 28.0569 14.1378 28.2474 14.3979C28.4379 14.6542 28.5898 14.9619 28.7034 15.3208C28.8169 15.6761 28.8975 16.0717 28.9451 16.5075V16.8756C28.8975 17.3005 28.8169 17.6887 28.7034 18.0403C28.5898 18.3919 28.4379 18.6959 28.2474 18.9523C28.0569 19.2087 27.8244 19.4065 27.5497 19.5456C27.2786 19.6848 26.9618 19.7544 26.5992 19.7544C26.2403 19.7544 25.9162 19.6793 25.6268 19.5292C25.3411 19.379 25.0976 19.1684 24.8961 18.8974C24.6947 18.6263 24.5409 18.3077 24.4346 17.9414C24.3284 17.5715 24.2753 17.1705 24.2753 16.7383ZM25.5993 16.6229V16.7383C25.5993 17.0093 25.6231 17.262 25.6708 17.4964C25.722 17.7308 25.8008 17.9378 25.907 18.1172C26.0132 18.293 26.1506 18.4322 26.319 18.5348C26.4912 18.6337 26.6963 18.6831 26.9344 18.6831C27.2347 18.6831 27.4819 18.6172 27.676 18.4853C27.8701 18.3535 28.0221 18.1758 28.132 17.9524C28.2456 17.7253 28.3225 17.4726 28.3628 17.1943V16.1999C28.3408 15.9838 28.295 15.7823 28.2254 15.5955C28.1595 15.4087 28.0698 15.2458 27.9562 15.1066C27.8427 14.9637 27.7017 14.8539 27.5332 14.7769C27.3684 14.6964 27.1724 14.6561 26.9453 14.6561C26.7036 14.6561 26.4985 14.7074 26.33 14.8099C26.1615 14.9125 26.0224 15.0535 25.9125 15.2329C25.8063 15.4124 25.7275 15.6212 25.6763 15.8592C25.625 16.0973 25.5993 16.3519 25.5993 16.6229ZM30.6043 16.7383V16.6119C30.6043 16.1834 30.6665 15.786 30.7911 15.4197C30.9156 15.0498 31.0951 14.7293 31.3295 14.4583C31.5675 14.1836 31.8569 13.9712 32.1975 13.821C32.5418 13.6672 32.93 13.5903 33.3622 13.5903C33.7981 13.5903 34.1863 13.6672 34.5269 13.821C34.8712 13.9712 35.1624 14.1836 35.4004 14.4583C35.6385 14.7293 35.8198 15.0498 35.9443 15.4197C36.0689 15.786 36.1311 16.1834 36.1311 16.6119V16.7383C36.1311 17.1668 36.0689 17.5642 35.9443 17.9304C35.8198 18.2967 35.6385 18.6172 35.4004 18.8919C35.1624 19.1629 34.873 19.3753 34.5324 19.5292C34.1918 19.6793 33.8054 19.7544 33.3732 19.7544C32.9373 19.7544 32.5473 19.6793 32.203 19.5292C31.8624 19.3753 31.573 19.1629 31.335 18.8919C31.0969 18.6172 30.9156 18.2967 30.7911 17.9304C30.6665 17.5642 30.6043 17.1668 30.6043 16.7383ZM31.9283 16.6119V16.7383C31.9283 17.0056 31.9558 17.2584 32.0107 17.4964C32.0656 17.7345 32.1517 17.9433 32.2689 18.1227C32.3861 18.3022 32.5363 18.4432 32.7194 18.5458C32.9026 18.6483 33.1205 18.6996 33.3732 18.6996C33.6186 18.6996 33.831 18.6483 34.0105 18.5458C34.1936 18.4432 34.3438 18.3022 34.461 18.1227C34.5782 17.9433 34.6643 17.7345 34.7192 17.4964C34.7778 17.2584 34.8071 17.0056 34.8071 16.7383V16.6119C34.8071 16.3482 34.7778 16.0991 34.7192 15.8647C34.6643 15.6267 34.5764 15.4161 34.4555 15.2329C34.3383 15.0498 34.1881 14.907 34.005 14.8044C33.8255 14.6982 33.6113 14.6451 33.3622 14.6451C33.1131 14.6451 32.8971 14.6982 32.7139 14.8044C32.5345 14.907 32.3861 15.0498 32.2689 15.2329C32.1517 15.4161 32.0656 15.6267 32.0107 15.8647C31.9558 16.0991 31.9283 16.3482 31.9283 16.6119ZM38.5539 14.9692V19.6445H37.2299V13.7001H38.477L38.5539 14.9692ZM38.3177 16.4526L37.8892 16.4471C37.8928 16.0259 37.9514 15.6395 38.065 15.2879C38.1822 14.9363 38.3433 14.6341 38.5484 14.3814C38.7572 14.1287 39.0063 13.9346 39.2956 13.799C39.5849 13.6599 39.9073 13.5903 40.2625 13.5903C40.5482 13.5903 40.8064 13.6306 41.0372 13.7111C41.2716 13.788 41.4712 13.9144 41.636 14.0902C41.8045 14.266 41.9327 14.4949 42.0206 14.7769C42.1085 15.0553 42.1524 15.3978 42.1524 15.8043V19.6445H40.8229V15.7988C40.8229 15.5131 40.7808 15.2879 40.6965 15.1231C40.616 14.9546 40.4969 14.8355 40.3394 14.766C40.1856 14.6927 39.9933 14.6561 39.7626 14.6561C39.5355 14.6561 39.3322 14.7037 39.1528 14.7989C38.9733 14.8941 38.8213 15.0242 38.6968 15.189C38.5759 15.3538 38.4825 15.5443 38.4166 15.7604C38.3507 15.9764 38.3177 16.2072 38.3177 16.4526ZM46.8387 18.0348C46.8387 17.903 46.8058 17.7839 46.7398 17.6777C46.6739 17.5678 46.5475 17.469 46.3607 17.381C46.1776 17.2931 45.9066 17.2126 45.5476 17.1393C45.2327 17.0697 44.9433 16.9873 44.6796 16.8921C44.4196 16.7932 44.1962 16.6742 44.0094 16.535C43.8226 16.3958 43.6779 16.231 43.5753 16.0405C43.4728 15.8501 43.4215 15.6303 43.4215 15.3813C43.4215 15.1395 43.4746 14.9106 43.5808 14.6945C43.6871 14.4784 43.8391 14.288 44.0368 14.1232C44.2346 13.9584 44.4745 13.8283 44.7565 13.7331C45.0422 13.6379 45.3609 13.5903 45.7125 13.5903C46.2106 13.5903 46.6373 13.6745 46.9925 13.843C47.3515 14.0078 47.6262 14.2331 47.8166 14.5187C48.0071 14.8008 48.1023 15.1194 48.1023 15.4747H46.7783C46.7783 15.3172 46.738 15.1707 46.6574 15.0352C46.5805 14.896 46.4633 14.7843 46.3058 14.7C46.1483 14.6121 45.9505 14.5682 45.7125 14.5682C45.4854 14.5682 45.2968 14.6048 45.1466 14.6781C45.0001 14.7476 44.8902 14.8392 44.817 14.9528C44.7474 15.0663 44.7126 15.1908 44.7126 15.3263C44.7126 15.4252 44.7309 15.515 44.7675 15.5955C44.8078 15.6725 44.8737 15.7439 44.9653 15.8098C45.0569 15.8721 45.1814 15.9307 45.3389 15.9856C45.5 16.0405 45.7015 16.0936 45.9432 16.1449C46.3974 16.2402 46.7874 16.3628 47.1134 16.513C47.443 16.6595 47.6958 16.85 47.8716 17.0844C48.0474 17.3151 48.1353 17.6081 48.1353 17.9634C48.1353 18.2271 48.0785 18.4688 47.965 18.6886C47.8551 18.9047 47.6939 19.0933 47.4815 19.2545C47.2691 19.412 47.0145 19.5347 46.7178 19.6226C46.4248 19.7105 46.0952 19.7544 45.7289 19.7544C45.1905 19.7544 44.7346 19.6592 44.361 19.4687C43.9874 19.2746 43.7035 19.0274 43.5094 18.7271C43.319 18.4231 43.2237 18.1081 43.2237 17.7821H44.5038C44.5185 18.0275 44.5862 18.2234 44.7071 18.3699C44.8316 18.5128 44.9854 18.6172 45.1686 18.6831C45.3554 18.7454 45.5476 18.7765 45.7454 18.7765C45.9835 18.7765 46.1831 18.7454 46.3443 18.6831C46.5054 18.6172 46.6281 18.5293 46.7124 18.4194C46.7966 18.3059 46.8387 18.1777 46.8387 18.0348Z" fill="#020B53" fill-opacity="0.8"/>
<path fill-rule="evenodd" clip-rule="evenodd" d="M213.085 12.8574C213.381 12.8574 213.621 13.0973 213.621 13.3932V18.7511C213.621 19.047 213.381 19.2868 213.085 19.2868H206.656C206.36 19.2868 206.12 19.047 206.12 18.7511V13.3932C206.12 13.0973 206.36 12.8574 206.656 12.8574H213.085ZM207.192 13.929H210.942V18.2153H207.192V13.929Z" fill="#B3B6CB"/>
<path fill-rule="evenodd" clip-rule="evenodd" d="M194.005 12.8574C193.708 12.8574 193.469 13.0973 193.469 13.3932V18.7511C193.469 19.047 193.708 19.2868 194.005 19.2868H200.434C200.73 19.2868 200.97 19.047 200.97 18.7511V13.3932C200.97 13.0973 200.73 12.8574 200.434 12.8574H194.005ZM199.898 13.929H196.148V18.2153H199.898V13.929Z" fill="#3366FF"/>
<path fill-rule="evenodd" clip-rule="evenodd" d="M183.241 12.8574C182.797 12.8574 182.437 13.2172 182.437 13.6611V16.8758C182.437 17.3197 182.797 17.6795 183.241 17.6795H187.527C187.971 17.6795 188.331 17.3197 188.331 16.8758V13.6611C188.331 13.2172 187.971 12.8574 187.527 12.8574H183.241ZM187.258 13.9287H183.508V16.6077H187.258V13.9287ZM180.828 14.4648H181.9V18.2153H186.721V19.2868H181.9H181.899H180.828V14.4648Z" fill="#B3B6CB"/>
<circle opacity="0.2" cx="239.367" cy="16.0738" r="9.64413" fill="#676D98"/>
<path d="M240.106 16.0741L243.236 12.9446C243.439 12.741 243.439 12.4119 243.236 12.2083C243.032 12.0048 242.703 12.0048 242.5 12.2083L239.37 15.3379L236.241 12.2083C236.037 12.0048 235.708 12.0048 235.504 12.2083C235.301 12.4119 235.301 12.741 235.504 12.9446L238.634 16.0741L235.504 19.2036C235.301 19.4072 235.301 19.7363 235.504 19.9399C235.606 20.0414 235.739 20.0924 235.872 20.0924C236.006 20.0924 236.139 20.0414 236.241 19.9399L239.37 16.8104L242.5 19.9399C242.601 20.0414 242.734 20.0924 242.868 20.0924C243.001 20.0924 243.134 20.0414 243.236 19.9399C243.439 19.7363 243.439 19.4072 243.236 19.2036L240.106 16.0741Z" fill="#676D98"/>
</svg>
