<svg width="32" height="32" viewBox="0 0 32 32" fill="none" xmlns="http://www.w3.org/2000/svg">
<path d="M8.61929 22.4047L8.61928 22.4047L8.61897 22.4055C8.50494 22.6824 8.5698 23.0067 8.78158 23.2185C8.99335 23.4303 9.31765 23.4952 9.59459 23.3811L9.59535 23.3808L15.4652 20.9264C15.5723 20.8893 15.6549 20.8202 15.713 20.7621L24.4988 11.9763C24.7913 11.6838 24.7913 11.2119 24.4988 10.9194L21.0807 7.50127C20.7882 7.20875 20.3163 7.20875 20.0238 7.50127L11.238 16.2871C11.1798 16.3452 11.1108 16.4278 11.0737 16.5349L8.61929 22.4047ZM22.907 11.4545L14.768 19.6063L10.7134 21.2997L12.4068 17.245L20.5458 9.09324L22.907 11.4545Z" fill="#091DF6" stroke="#091DF6" stroke-width="0.3"/>
<path d="M26.4509 10.1061L26.4509 10.1061L26.4526 10.1043L28.9315 7.54357C29.2231 7.25098 29.2228 6.77976 28.9306 6.48753L25.5124 3.06939C25.2199 2.77687 24.748 2.77687 24.4555 3.06939L21.7132 5.8117C21.4207 6.10422 21.4207 6.5761 21.7132 6.86862C22.0078 7.16324 22.4797 7.15903 22.7831 6.85563L24.9905 4.64827L27.3548 7.01261C27.2487 7.12328 27.074 7.30298 26.8704 7.5124C26.7332 7.65352 26.5829 7.80813 26.4316 7.96423C26.1952 8.20817 25.9577 8.45434 25.7678 8.65468C25.5813 8.85141 25.4325 9.01232 25.3807 9.08036C25.2753 9.21873 25.1851 9.38136 25.171 9.56202C25.1563 9.75108 25.2266 9.93478 25.3927 10.1048L25.3927 10.1048L25.3939 10.1061C25.6865 10.3986 26.1583 10.3986 26.4509 10.1061Z" fill="#091DF6" stroke="#091DF6" stroke-width="0.3"/>
<path d="M15.0565 6.85002L15.0565 6.85H15.054H5.65267C4.11437 6.85 2.85 8.09794 2.85 9.65095V26.3491C2.85 27.8871 4.11383 29.15 5.65267 29.15H22.3616C23.8999 29.15 25.1647 27.8875 25.1499 26.3483V16.9538C25.1499 16.6958 25.0493 16.4919 24.891 16.3543C24.7358 16.2194 24.5336 16.1555 24.3367 16.1555C24.1399 16.1555 23.9376 16.2194 23.7824 16.3543C23.6241 16.4919 23.5235 16.6958 23.5235 16.9538V26.3346C23.5235 26.9865 22.9997 27.5101 22.3472 27.5101H5.65267C5.00017 27.5101 4.47634 26.9865 4.47634 26.3346V9.65095C4.47634 8.99911 5.00017 8.47548 5.65267 8.47548H15.054C15.3115 8.47548 15.5155 8.37634 15.6533 8.21937C15.7886 8.06528 15.8528 7.86429 15.8528 7.66814C15.8528 7.47196 15.7886 7.27055 15.654 7.11502C15.517 6.95673 15.314 6.85431 15.0565 6.85002Z" fill="#091DF6" stroke="#091DF6" stroke-width="0.3"/>
</svg>
