<svg width="196" height="28" viewBox="0 0 196 28" fill="none" xmlns="http://www.w3.org/2000/svg">
<path d="M19.5405 15.257C20.156 14.617 21.2365 14.6415 21.8555 15.257C22.4884 15.8899 22.4674 16.932 21.8555 17.5719C21.2155 18.2398 20.5686 18.9008 19.8832 19.5267C15.6799 23.3733 10.396 25.6813 4.63657 25.489C3.74834 25.461 3 24.7651 3 23.8524C3 22.9887 3.75184 22.1879 4.63657 22.2159C6.45148 22.2753 7.81878 22.1564 9.5008 21.7298C10.1582 21.5619 10.8052 21.3591 11.4381 21.1213C11.6095 21.0584 11.7808 20.9884 11.9487 20.9185C12.1235 20.8451 11.9417 20.9185 11.9137 20.9325C11.9836 20.901 12.0536 20.8695 12.1235 20.8381C12.3963 20.7122 12.669 20.5828 12.9383 20.4464C13.9944 19.9079 15.0015 19.2749 15.9526 18.5686C16.0226 18.5161 16.089 18.4636 16.159 18.4147C16.1485 18.4217 15.9352 18.5895 16.0785 18.4776C16.1765 18.4007 16.2744 18.3238 16.3723 18.2433C16.5611 18.093 16.7465 17.9356 16.9283 17.7782C17.2815 17.474 17.6242 17.1628 17.9634 16.8411C18.5054 16.3305 19.0265 15.7955 19.5405 15.257Z" fill="#091DF6"/>
<path d="M10.3017 14.4494C10.8682 14.1486 11.3683 13.8164 11.8054 13.4877C11.9698 13.3653 11.9628 13.117 11.7984 12.9981L8.03922 10.288C7.8364 10.1411 7.55664 10.288 7.55664 10.5363L7.57063 15.0578C7.57063 15.2572 7.75946 15.4005 7.95179 15.3516C8.75959 15.1523 9.5464 14.8515 10.3017 14.4494Z" fill="#091DF6"/>
<path d="M17.3339 11.7983C13.8649 9.14408 10.3925 6.4899 6.92 3.83223C6.43392 3.46156 6.09122 3.19929 5.60515 2.82861L3.23423 3.30769C2.74116 4.15045 3.10834 5.0072 3.81472 5.54573C7.28368 8.19991 10.7561 10.8576 14.2286 13.5118C14.7147 13.8824 15.2007 14.2531 15.6833 14.6238C16.3862 15.1623 17.5157 14.7322 17.9214 14.0363C18.4144 13.1935 18.0403 12.3368 17.3339 11.7983Z" fill="#091DF6"/>
<path d="M9.61657 19.5089C10.6377 19.2746 11.6448 18.8375 12.5785 18.3794C14.5228 17.4317 16.3237 16.0679 17.6665 14.3684C17.9463 14.0152 18.1456 13.683 18.1456 13.2109C18.1456 12.8088 17.9672 12.3297 17.6665 12.0534C17.0755 11.5114 15.918 11.3366 15.3515 12.0534C14.9949 12.508 14.6067 12.9347 14.1906 13.3333C14.0052 13.5117 13.8164 13.683 13.6206 13.8474C13.5122 13.9383 13.4003 14.0292 13.2918 14.1201C13.0226 14.3404 13.5471 13.9348 13.2918 14.1201C12.5435 14.6622 11.7637 15.1482 10.9314 15.5539C10.7531 15.6413 10.5747 15.7217 10.3964 15.8022C10.281 15.8546 10.0117 15.935 10.5188 15.7532C10.4314 15.7847 10.3474 15.8231 10.2635 15.8581C10.0047 15.9595 9.74246 16.0574 9.47669 16.1449C9.2389 16.2218 8.99761 16.2987 8.75282 16.3547C7.91705 16.5435 7.34705 17.5541 7.60932 18.3689C7.88908 19.2396 8.72135 19.7117 9.61657 19.5089Z" fill="#091DF6"/>
<path d="M5.65263 2.86368C5.37288 2.63638 5.01619 2.5 4.63852 2.5C3.7503 2.5 3.00195 3.24834 3.00195 4.13657C3.00195 9.87154 3.00195 15.603 3.00195 21.338C3.00195 22.1598 3.00195 22.9816 3.00195 23.8033C3.00195 24.6881 3.75379 25.4399 4.63852 25.4399C5.52674 25.4399 6.27508 24.6916 6.27508 23.8033C6.27508 18.0684 6.27508 12.3369 6.27508 6.60191C6.27508 5.92 6.27508 5.2346 6.27508 4.5527C6.27508 4.41632 6.27508 4.27644 6.27508 4.14006V3.33926L5.65263 2.86368Z" fill="#091DF6"/>
<path d="M42.5466 22.264C41.256 22.264 40.156 22.0293 39.2466 21.56C38.352 21.0907 37.582 20.46 36.9366 19.668L38.6526 18.062C39.1953 18.722 39.7893 19.2207 40.4346 19.558C41.0946 19.8953 41.8426 20.064 42.6786 20.064C43.6613 20.064 44.402 19.844 44.9006 19.404C45.3993 18.964 45.6486 18.37 45.6486 17.622C45.6486 17.0207 45.4726 16.544 45.1206 16.192C44.7686 15.84 44.1453 15.576 43.2506 15.4L41.8866 15.158C40.3906 14.8793 39.2686 14.388 38.5206 13.684C37.7726 12.98 37.3986 12.012 37.3986 10.78C37.3986 10.1053 37.5233 9.49667 37.7726 8.954C38.0366 8.39667 38.396 7.93467 38.8506 7.568C39.32 7.18667 39.8846 6.89333 40.5446 6.688C41.2046 6.48267 41.9453 6.38 42.7666 6.38C43.9253 6.38 44.93 6.58533 45.7806 6.996C46.6313 7.392 47.3573 7.97133 47.9586 8.734L46.2206 10.274C45.8246 9.76067 45.3406 9.35 44.7686 9.042C44.1966 8.734 43.4853 8.58 42.6346 8.58C41.7546 8.58 41.0726 8.756 40.5886 9.108C40.1046 9.46 39.8626 9.97333 39.8626 10.648C39.8626 11.2933 40.0606 11.7773 40.4566 12.1C40.8526 12.408 41.4686 12.6427 42.3046 12.804L43.6686 13.09C45.2086 13.3833 46.3306 13.882 47.0346 14.586C47.7533 15.29 48.1126 16.258 48.1126 17.49C48.1126 18.2087 47.988 18.8613 47.7386 19.448C47.4893 20.0347 47.1226 20.5407 46.6386 20.966C46.1693 21.3767 45.59 21.6993 44.9006 21.934C44.2113 22.154 43.4266 22.264 42.5466 22.264ZM51.0971 22V6.644H57.6971C59.1197 6.644 60.2197 7.062 60.9971 7.898C61.7744 8.734 62.1631 9.856 62.1631 11.264C62.1631 12.672 61.7744 13.794 60.9971 14.63C60.2197 15.466 59.1197 15.884 57.6971 15.884H53.5831V22H51.0971ZM53.5831 13.706H57.5431C58.1737 13.706 58.6651 13.5447 59.0171 13.222C59.3691 12.8847 59.5451 12.408 59.5451 11.792V10.736C59.5451 10.12 59.3691 9.65067 59.0171 9.328C58.6651 8.99067 58.1737 8.822 57.5431 8.822H53.5831V13.706ZM70.0893 22V6.644H76.6893C78.1119 6.644 79.2119 7.062 79.9893 7.898C80.7666 8.734 81.1553 9.856 81.1553 11.264C81.1553 12.672 80.7666 13.794 79.9893 14.63C79.2119 15.466 78.1119 15.884 76.6893 15.884H72.5753V22H70.0893ZM72.5753 13.706H76.5353C77.1659 13.706 77.6573 13.5447 78.0093 13.222C78.3613 12.8847 78.5373 12.408 78.5373 11.792V10.736C78.5373 10.12 78.3613 9.65067 78.0093 9.328C77.6573 8.99067 77.1659 8.822 76.5353 8.822H72.5753V13.706ZM91.8304 22C91.1998 22 90.7158 21.824 90.3784 21.472C90.0411 21.1053 89.8358 20.6433 89.7624 20.086H89.6524C89.4324 20.8047 89.0291 21.3473 88.4424 21.714C87.8558 22.0807 87.1444 22.264 86.3084 22.264C85.1204 22.264 84.2038 21.956 83.5584 21.34C82.9278 20.724 82.6124 19.8953 82.6124 18.854C82.6124 17.71 83.0231 16.852 83.8444 16.28C84.6804 15.708 85.8978 15.422 87.4964 15.422H89.5644V14.454C89.5644 13.75 89.3738 13.2073 88.9924 12.826C88.6111 12.4447 88.0171 12.254 87.2104 12.254C86.5358 12.254 85.9858 12.4007 85.5604 12.694C85.1351 12.9873 84.7758 13.3613 84.4824 13.816L83.0524 12.518C83.4338 11.8727 83.9691 11.3447 84.6584 10.934C85.3478 10.5087 86.2498 10.296 87.3644 10.296C88.8458 10.296 89.9824 10.6407 90.7744 11.33C91.5664 12.0193 91.9624 13.0093 91.9624 14.3V20.042H93.1724V22H91.8304ZM86.9904 20.438C87.7384 20.438 88.3544 20.2767 88.8384 19.954C89.3224 19.6167 89.5644 19.1693 89.5644 18.612V16.962H87.5404C85.8831 16.962 85.0544 17.4753 85.0544 18.502V18.898C85.0544 19.4113 85.2231 19.8 85.5604 20.064C85.9124 20.3133 86.3891 20.438 86.9904 20.438ZM105.555 23.078C105.555 24.266 105.1 25.1607 104.191 25.762C103.281 26.3633 101.8 26.664 99.7466 26.664C98.808 26.664 98.0086 26.598 97.3486 26.466C96.7033 26.3487 96.168 26.1727 95.7426 25.938C95.332 25.7033 95.0313 25.4173 94.8406 25.08C94.65 24.7427 94.5546 24.354 94.5546 23.914C94.5546 23.2833 94.7233 22.792 95.0606 22.44C95.4126 22.088 95.8966 21.846 96.5126 21.714V21.472C95.6473 21.1933 95.2146 20.6067 95.2146 19.712C95.2146 19.1253 95.4126 18.678 95.8086 18.37C96.2046 18.0473 96.6813 17.82 97.2386 17.688V17.6C96.564 17.2773 96.0433 16.83 95.6766 16.258C95.3246 15.6713 95.1486 14.9893 95.1486 14.212C95.1486 13.0387 95.5373 12.0927 96.3146 11.374C97.1066 10.6553 98.236 10.296 99.7026 10.296C100.509 10.296 101.199 10.4133 101.771 10.648V10.34C101.771 9.82667 101.888 9.43067 102.123 9.152C102.372 8.85867 102.753 8.712 103.267 8.712H105.027V10.648H102.695V11.11C103.208 11.4473 103.604 11.8873 103.883 12.43C104.161 12.958 104.301 13.552 104.301 14.212C104.301 15.3707 103.905 16.3093 103.113 17.028C102.321 17.732 101.191 18.084 99.7246 18.084C99.1673 18.084 98.6686 18.0253 98.2286 17.908C97.9353 18.0107 97.6786 18.1573 97.4586 18.348C97.2386 18.524 97.1286 18.7587 97.1286 19.052C97.1286 19.36 97.268 19.58 97.5466 19.712C97.8253 19.844 98.2213 19.91 98.7346 19.91H101.551C102.959 19.91 103.978 20.196 104.609 20.768C105.239 21.3253 105.555 22.0953 105.555 23.078ZM103.311 23.342C103.311 22.946 103.157 22.6307 102.849 22.396C102.555 22.1613 102.013 22.044 101.221 22.044H97.3486C96.8206 22.352 96.5566 22.792 96.5566 23.364C96.5566 23.8333 96.74 24.2073 97.1066 24.486C97.488 24.7793 98.126 24.926 99.0206 24.926H100.517C102.379 24.926 103.311 24.398 103.311 23.342ZM99.7246 16.346C100.429 16.346 100.971 16.192 101.353 15.884C101.749 15.5613 101.947 15.07 101.947 14.41V13.97C101.947 13.31 101.749 12.826 101.353 12.518C100.971 12.1953 100.429 12.034 99.7246 12.034C99.0206 12.034 98.4706 12.1953 98.0746 12.518C97.6933 12.826 97.5026 13.31 97.5026 13.97V14.41C97.5026 15.07 97.6933 15.5613 98.0746 15.884C98.4706 16.192 99.0206 16.346 99.7246 16.346ZM111.698 22.264C110.877 22.264 110.143 22.1247 109.498 21.846C108.853 21.5673 108.303 21.1713 107.848 20.658C107.393 20.13 107.041 19.4993 106.792 18.766C106.557 18.018 106.44 17.1893 106.44 16.28C106.44 15.3707 106.557 14.5493 106.792 13.816C107.041 13.068 107.393 12.4373 107.848 11.924C108.303 11.396 108.853 10.9927 109.498 10.714C110.143 10.4353 110.877 10.296 111.698 10.296C112.534 10.296 113.267 10.4427 113.898 10.736C114.543 11.0293 115.079 11.44 115.504 11.968C115.929 12.4813 116.245 13.0827 116.45 13.772C116.67 14.4613 116.78 15.202 116.78 15.994V16.896H108.926V17.27C108.926 18.15 109.183 18.876 109.696 19.448C110.224 20.0053 110.972 20.284 111.94 20.284C112.644 20.284 113.238 20.13 113.722 19.822C114.206 19.514 114.617 19.096 114.954 18.568L116.362 19.954C115.937 20.658 115.321 21.2227 114.514 21.648C113.707 22.0587 112.769 22.264 111.698 22.264ZM111.698 12.166C111.287 12.166 110.906 12.2393 110.554 12.386C110.217 12.5327 109.923 12.738 109.674 13.002C109.439 13.266 109.256 13.5813 109.124 13.948C108.992 14.3147 108.926 14.718 108.926 15.158V15.312H114.25V15.092C114.25 14.212 114.023 13.508 113.568 12.98C113.113 12.4373 112.49 12.166 111.698 12.166ZM124.81 6.644H131.608C132.884 6.644 133.881 7.00333 134.6 7.722C135.333 8.44067 135.7 9.40133 135.7 10.604C135.7 11.176 135.619 11.6673 135.458 12.078C135.297 12.474 135.091 12.804 134.842 13.068C134.593 13.3173 134.307 13.508 133.984 13.64C133.661 13.7573 133.346 13.8307 133.038 13.86V13.992C133.346 14.0067 133.683 14.08 134.05 14.212C134.431 14.344 134.783 14.5567 135.106 14.85C135.429 15.1287 135.7 15.4953 135.92 15.95C136.14 16.39 136.25 16.9327 136.25 17.578C136.25 18.194 136.147 18.7733 135.942 19.316C135.751 19.8587 135.48 20.328 135.128 20.724C134.776 21.12 134.358 21.4353 133.874 21.67C133.39 21.89 132.862 22 132.29 22H124.81V6.644ZM127.296 19.866H131.564C132.209 19.866 132.715 19.6973 133.082 19.36C133.449 19.0227 133.632 18.5387 133.632 17.908V17.16C133.632 16.5293 133.449 16.0453 133.082 15.708C132.715 15.3707 132.209 15.202 131.564 15.202H127.296V19.866ZM127.296 13.134H131.146C131.762 13.134 132.239 12.98 132.576 12.672C132.913 12.3493 133.082 11.8947 133.082 11.308V10.604C133.082 10.0173 132.913 9.57 132.576 9.262C132.239 8.93933 131.762 8.778 131.146 8.778H127.296V13.134ZM146.066 20.108H145.978C145.875 20.3867 145.736 20.658 145.56 20.922C145.399 21.186 145.186 21.4207 144.922 21.626C144.673 21.8167 144.365 21.9707 143.998 22.088C143.646 22.2053 143.235 22.264 142.766 22.264C141.578 22.264 140.654 21.8827 139.994 21.12C139.349 20.3573 139.026 19.2647 139.026 17.842V10.56H141.424V17.534C141.424 19.3087 142.157 20.196 143.624 20.196C143.932 20.196 144.233 20.1593 144.526 20.086C144.819 19.998 145.076 19.8733 145.296 19.712C145.531 19.5507 145.714 19.3453 145.846 19.096C145.993 18.8467 146.066 18.5533 146.066 18.216V10.56H148.464V22H146.066V20.108ZM153.108 8.514C152.609 8.514 152.242 8.39667 152.008 8.162C151.788 7.92733 151.678 7.62667 151.678 7.26V6.886C151.678 6.51933 151.788 6.21867 152.008 5.984C152.242 5.74933 152.609 5.632 153.108 5.632C153.606 5.632 153.966 5.74933 154.186 5.984C154.406 6.21867 154.516 6.51933 154.516 6.886V7.26C154.516 7.62667 154.406 7.92733 154.186 8.162C153.966 8.39667 153.606 8.514 153.108 8.514ZM151.898 10.56H154.296V22H151.898V10.56ZM160.162 22C159.341 22 158.725 21.7947 158.314 21.384C157.918 20.9587 157.72 20.372 157.72 19.624V5.72H160.118V20.042H161.702V22H160.162ZM171.187 20.108H171.077C170.828 20.7827 170.417 21.3107 169.845 21.692C169.288 22.0733 168.628 22.264 167.865 22.264C166.413 22.264 165.291 21.7433 164.499 20.702C163.707 19.646 163.311 18.172 163.311 16.28C163.311 14.388 163.707 12.9213 164.499 11.88C165.291 10.824 166.413 10.296 167.865 10.296C168.628 10.296 169.288 10.4867 169.845 10.868C170.417 11.2347 170.828 11.7627 171.077 12.452H171.187V5.72H173.585V22H171.187V20.108ZM168.591 20.196C169.325 20.196 169.941 20.02 170.439 19.668C170.938 19.3013 171.187 18.8247 171.187 18.238V14.322C171.187 13.7353 170.938 13.266 170.439 12.914C169.941 12.5473 169.325 12.364 168.591 12.364C167.755 12.364 167.088 12.6353 166.589 13.178C166.091 13.706 165.841 14.41 165.841 15.29V17.27C165.841 18.15 166.091 18.8613 166.589 19.404C167.088 19.932 167.755 20.196 168.591 20.196ZM181.501 22.264C180.68 22.264 179.946 22.1247 179.301 21.846C178.656 21.5673 178.106 21.1713 177.651 20.658C177.196 20.13 176.844 19.4993 176.595 18.766C176.36 18.018 176.243 17.1893 176.243 16.28C176.243 15.3707 176.36 14.5493 176.595 13.816C176.844 13.068 177.196 12.4373 177.651 11.924C178.106 11.396 178.656 10.9927 179.301 10.714C179.946 10.4353 180.68 10.296 181.501 10.296C182.337 10.296 183.07 10.4427 183.701 10.736C184.346 11.0293 184.882 11.44 185.307 11.968C185.732 12.4813 186.048 13.0827 186.253 13.772C186.473 14.4613 186.583 15.202 186.583 15.994V16.896H178.729V17.27C178.729 18.15 178.986 18.876 179.499 19.448C180.027 20.0053 180.775 20.284 181.743 20.284C182.447 20.284 183.041 20.13 183.525 19.822C184.009 19.514 184.42 19.096 184.757 18.568L186.165 19.954C185.74 20.658 185.124 21.2227 184.317 21.648C183.51 22.0587 182.572 22.264 181.501 22.264ZM181.501 12.166C181.09 12.166 180.709 12.2393 180.357 12.386C180.02 12.5327 179.726 12.738 179.477 13.002C179.242 13.266 179.059 13.5813 178.927 13.948C178.795 14.3147 178.729 14.718 178.729 15.158V15.312H184.053V15.092C184.053 14.212 183.826 13.508 183.371 12.98C182.916 12.4373 182.293 12.166 181.501 12.166ZM189.237 22V10.56H191.635V12.76H191.745C191.907 12.1733 192.244 11.66 192.757 11.22C193.271 10.78 193.982 10.56 194.891 10.56H195.529V12.87H194.583C193.63 12.87 192.897 13.024 192.383 13.332C191.885 13.64 191.635 14.0947 191.635 14.696V22H189.237Z" fill="#001329"/>
</svg>
