<svg width="110" height="24" viewBox="0 0 110 24" fill="none" xmlns="http://www.w3.org/2000/svg">
<path d="M24.0689 9.30131H15.2005L12.4718 0.894096L9.72506 9.30131L0.856689 9.28498L8.0286 14.4885L5.28351 22.8941L12.4554 17.6906L19.6274 22.8941L16.897 14.4869L24.0689 9.30131Z" fill="#00B67A"/>
<path d="M17.5102 16.3904L16.8967 14.49L12.4797 17.6937L17.5102 16.3904Z" fill="#005128"/>
<path opacity="0.8" d="M27.8753 5.68218H39.0286V7.75275H34.6372V19.4211H32.2294V7.75275H27.8567L27.8753 5.68218ZM38.5504 9.47454H40.6084V11.3986H40.6456C40.7241 11.1142 40.8546 10.8469 41.0308 10.61C41.2188 10.3437 41.4481 10.1089 41.7099 9.91426C41.9728 9.69511 42.271 9.52197 42.5919 9.40218C42.9004 9.27132 43.2318 9.20259 43.567 9.19995C43.8237 9.19995 44.0061 9.2185 44.0991 9.2185C44.1957 9.24009 44.2942 9.25253 44.3931 9.25562V11.3615C44.2357 11.326 44.0758 11.3018 43.9149 11.2891C43.7564 11.2675 43.5967 11.2551 43.4367 11.252C43.0765 11.2502 42.72 11.3248 42.391 11.4709C42.0621 11.6237 41.7683 11.8422 41.5276 12.1129C41.2698 12.4296 41.0707 12.7896 40.9396 13.176C40.7847 13.6483 40.7099 14.143 40.7182 14.6399V19.3674H38.5132L38.5504 9.47454ZM54.497 19.4211H52.3292V18.0296H52.2939C52.0121 18.5389 51.5914 18.9583 51.0806 19.2393C50.5868 19.5363 50.0217 19.6946 49.4451 19.6976C48.1425 19.6976 47.1861 19.3859 46.5981 18.7254C46.0101 18.0649 45.7161 17.0964 45.7161 15.7939V9.47454H47.9248V15.5768C47.9248 16.4563 48.0886 17.0797 48.4384 17.4322C48.7882 17.7847 49.2478 17.9888 49.8526 17.9888C50.2498 18.0015 50.645 17.9268 51.0099 17.7699C51.2995 17.6419 51.5546 17.4473 51.7542 17.2021C51.9568 16.9496 52.101 16.6557 52.1766 16.3412C52.2684 15.9882 52.3116 15.6243 52.305 15.2596V9.48937H54.51V19.436L54.497 19.4211ZM58.2464 16.2336C58.319 16.8756 58.559 17.3153 58.9907 17.5899C59.4534 17.8557 59.9809 17.9886 60.5146 17.974C60.7482 17.9725 60.9814 17.9545 61.2124 17.9202C61.4673 17.8892 61.7173 17.8269 61.9567 17.7346C62.1803 17.6558 62.3775 17.5164 62.5261 17.332C62.6807 17.1418 62.7536 16.8984 62.7289 16.6548C62.726 16.5236 62.6969 16.3943 62.6432 16.2745C62.5895 16.1548 62.5124 16.0469 62.4163 15.9572C62.1945 15.7703 61.943 15.6217 61.672 15.5175C61.3372 15.398 60.993 15.3061 60.643 15.2429C60.2579 15.1705 59.8727 15.0777 59.467 14.9868C59.0614 14.8959 58.6595 14.7846 58.2743 14.6566C57.9034 14.5397 57.5553 14.3602 57.2453 14.126C56.941 13.9078 56.695 13.6186 56.5289 13.2836C56.3323 12.8914 56.237 12.4565 56.2517 12.0182C56.231 11.5342 56.3738 11.0573 56.6573 10.6638C56.9204 10.2958 57.2665 9.99459 57.6677 9.78439C58.0925 9.55521 58.5509 9.39428 59.026 9.30755C59.4932 9.22234 59.9672 9.1795 60.4421 9.17954C60.9368 9.17733 61.4302 9.23275 61.9121 9.34467C62.3638 9.44182 62.7934 9.62174 63.1792 9.8753C63.5592 10.1171 63.8777 10.4435 64.1096 10.829C64.3757 11.256 64.5394 11.7386 64.5878 12.239H62.2916C62.1819 11.7084 61.9418 11.3596 61.5753 11.1759C61.1674 10.9875 60.7221 10.8936 60.2727 10.9013C60.1257 10.9013 59.9229 10.9199 59.7145 10.9384C59.508 10.9673 59.3048 11.0164 59.1079 11.085C58.929 11.1556 58.7663 11.2616 58.6297 11.3967C58.4942 11.5398 58.4213 11.7306 58.4269 11.9273C58.422 12.048 58.4443 12.1683 58.4919 12.2793C58.5395 12.3904 58.6114 12.4894 58.7023 12.5693C58.9244 12.751 59.1762 12.8935 59.4466 12.9905C59.7815 13.1097 60.1256 13.2016 60.4756 13.2651C60.8626 13.3374 61.2664 13.4302 61.6702 13.5211C62.0739 13.612 62.461 13.7233 62.8461 13.8513C63.2184 13.965 63.567 14.1448 63.8751 14.382C64.1788 14.6019 64.4324 14.8832 64.6194 15.2076C64.8137 15.5866 64.9085 16.0086 64.8948 16.434C64.9126 16.9638 64.7721 17.4869 64.4911 17.9369C64.218 18.3434 63.8608 18.6869 63.4435 18.9443C62.9967 19.2034 62.5139 19.3947 62.0107 19.5121C61.498 19.6267 60.9749 19.6888 60.4495 19.6976C59.8604 19.7023 59.2734 19.6281 58.7041 19.4768C58.2046 19.3458 57.7318 19.1292 57.3067 18.8367C56.9206 18.5523 56.6065 18.1819 56.3894 17.755C56.15 17.2771 56.0228 16.7511 56.0172 16.2169H58.2408V16.2336H58.2464ZM65.5033 9.47454H67.178V6.47071H69.3829V9.45413H71.3702V11.085H69.3792V16.3969C69.3806 16.5991 69.393 16.801 69.4164 17.0018C69.434 17.1486 69.4774 17.2912 69.5448 17.4229C69.6224 17.5363 69.7308 17.6251 69.8574 17.679C70.046 17.7458 70.2454 17.7772 70.4454 17.7717C70.5989 17.7748 70.7524 17.7686 70.905 17.7532C71.0596 17.7375 71.213 17.7127 71.3646 17.679V19.3841C71.1246 19.4193 70.8864 19.4379 70.6464 19.4564C70.409 19.4878 70.1694 19.5002 69.93 19.4935C69.4592 19.5076 68.9889 19.452 68.5345 19.3284C68.2242 19.239 67.9405 19.0753 67.7083 18.8516C67.5057 18.6297 67.3658 18.3582 67.3026 18.0649C67.2279 17.7026 67.1849 17.3344 67.1742 16.9646V11.1054H65.4996V9.47454H65.5033ZM72.9072 9.47454H74.9838V10.8308H75.0191C75.2955 10.2826 75.7492 9.84336 76.3068 9.584C76.8704 9.32392 77.4851 9.19271 78.1061 9.19995C78.8158 9.17742 79.5208 9.3217 80.1641 9.62112C80.7328 9.87718 81.2308 10.2668 81.6155 10.7566C82.0137 11.2554 82.3073 11.829 82.4789 12.4431C82.8578 13.7455 82.8707 15.1267 82.5161 16.4359C82.3508 17.0337 82.0833 17.5986 81.7253 18.1057C81.3731 18.5875 80.9148 18.9823 80.3855 19.2597C79.7955 19.5634 79.1384 19.7146 78.4746 19.6995C78.1537 19.6962 77.8337 19.6651 77.5181 19.6067C77.2024 19.5521 76.8944 19.4599 76.6008 19.3321C76.3086 19.2072 76.036 19.0409 75.7914 18.8386C75.5452 18.6426 75.3339 18.4068 75.1662 18.1409H75.1308V23.1059H72.9258V9.4764L72.9072 9.47454ZM80.6051 14.458C80.6075 14.0184 80.5448 13.5807 80.419 13.1593C80.3125 12.7585 80.132 12.381 79.8869 12.0461C79.6552 11.7285 79.3615 11.461 79.0235 11.2594C78.6585 11.0575 78.2461 10.9563 77.8289 10.9663C76.9097 10.9663 76.2119 11.278 75.7337 11.9181C75.2555 12.5582 75.0359 13.4209 75.0359 14.484C75.0284 14.9545 75.0912 15.4235 75.222 15.8755C75.3322 16.2753 75.5221 16.6489 75.7802 16.9739C76.0154 17.2834 76.3167 17.5369 76.6622 17.7161C77.0312 17.9055 77.4418 17.9999 77.8568 17.9907C78.2995 18.0034 78.7374 17.8963 79.124 17.6808C79.4617 17.4781 79.7553 17.21 79.9874 16.8923C80.2164 16.555 80.3787 16.1771 80.4656 15.7791C80.558 15.3466 80.6047 14.9058 80.6051 14.4636V14.458ZM84.481 5.68218H86.686V7.75275H84.481V5.68218ZM84.481 9.47454H86.686V19.4211H84.481V9.47454ZM88.6528 5.68218H90.8578V19.4119H88.6528V5.68218ZM97.5844 19.6976C96.8538 19.712 96.1281 19.5742 95.4539 19.2931C94.8602 19.0422 94.3229 18.675 93.8741 18.2133C93.4371 17.73 93.1057 17.1613 92.9009 16.5435C92.6683 15.8657 92.5501 15.154 92.5511 14.4376C92.5412 13.726 92.6597 13.0183 92.9009 12.3485C93.1098 11.7325 93.4408 11.1647 93.8741 10.6787C94.3144 10.2065 94.8538 9.83719 95.4539 9.597C96.1308 9.32522 96.8547 9.18843 97.5844 9.19438C98.3156 9.17927 99.0418 9.3164 99.7168 9.597C100.314 9.84238 100.852 10.211 101.297 10.6787C101.733 11.1621 102.065 11.7307 102.27 12.3485C102.502 13.0206 102.62 13.7267 102.62 14.4376C102.632 15.1549 102.513 15.8684 102.27 16.5435C102.053 17.156 101.723 17.7225 101.297 18.2133C100.856 18.6844 100.316 19.0531 99.7168 19.2931C99.039 19.5687 98.3127 19.7062 97.5807 19.6976H97.5844ZM97.5844 17.9573C98.0274 17.9647 98.4646 17.8573 98.8534 17.6456C99.2046 17.4462 99.5061 17.1703 99.7354 16.8385C99.972 16.501 100.146 16.124 100.249 15.7253C100.47 14.891 100.47 14.0139 100.249 13.1797C100.149 12.7798 99.9752 12.4021 99.7354 12.0665C99.5006 11.7449 99.2 11.4768 98.8534 11.2798C98.4641 11.0694 98.0272 10.9621 97.5844 10.9681C97.142 10.96 96.7051 11.0675 96.3172 11.2798C95.9702 11.4762 95.6695 11.7444 95.4352 12.0665C95.1955 12.4021 95.0213 12.7798 94.9217 13.1797C94.7009 14.0139 94.7009 14.891 94.9217 15.7253C95.0211 16.1253 95.1953 16.5029 95.4352 16.8385C95.6684 17.1669 95.9691 17.4421 96.3172 17.6456C96.7019 17.8626 97.1389 17.9704 97.5807 17.9573H97.5844ZM103.28 9.47454H104.955V6.47071H107.16V9.45413H109.143V11.085H107.16V16.3969C107.161 16.599 107.172 16.8009 107.195 17.0018C107.214 17.1484 107.257 17.2908 107.324 17.4229C107.401 17.5363 107.51 17.6251 107.636 17.679C107.825 17.7458 108.024 17.7772 108.224 17.7717C108.378 17.7748 108.531 17.7686 108.684 17.7532C108.838 17.7375 108.992 17.7127 109.143 17.679V19.3841C108.905 19.4193 108.665 19.4379 108.427 19.4564C108.19 19.4877 107.95 19.5001 107.711 19.4935C107.239 19.5076 106.768 19.4519 106.313 19.3284C106.003 19.2381 105.72 19.0745 105.487 18.8516C105.284 18.6303 105.145 18.3585 105.083 18.0649C105.008 17.7027 104.965 17.3345 104.955 16.9646V11.1054H103.28V9.47454Z" fill="#161D25"/>
</svg>
